<?xml version="1.0" standalone="no"?>
<!DOCTYPE svg PUBLIC "-//W3C//DTD SVG 20010904//EN"
 "http://www.w3.org/TR/2001/REC-SVG-20010904/DTD/svg10.dtd">
<svg version="1.0" xmlns="http://www.w3.org/2000/svg"
 width="946.000000pt" height="845.000000pt" viewBox="0 0 946.000000 845.000000"
 preserveAspectRatio="xMidYMid meet">
<metadata>
Created by potrace 1.16, written by Peter Selinger 2001-2019
</metadata>
<g transform="translate(0.000000,845.000000) scale(0.100000,-0.100000)"
fill="#000000" stroke="none">
<path d="M4323 7863 c7 -10 -42 -58 -97 -96 -15 -10 -30 -34 -37 -60 -23 -86
-30 -96 -68 -107 -20 -5 -50 -10 -67 -10 -28 0 -30 3 -30 33 0 17 -4 41 -9 51
-6 15 -5 18 6 12 8 -4 1 4 -14 18 -15 14 -33 26 -40 26 -7 -1 0 -8 16 -16 39
-21 33 -25 -13 -7 -39 16 -99 11 -154 -12 -15 -7 -17 -5 -11 6 5 8 -1 5 -13
-5 -23 -20 -29 -32 -11 -20 7 4 10 3 7 -2 -49 -101 -52 -114 -62 -232 -12
-135 -16 -143 -82 -161 -51 -14 -84 -3 -100 35 -33 78 -10 118 64 112 34 -3
37 -6 40 -35 4 -39 18 -43 24 -9 7 36 -17 83 -54 106 -42 25 -169 28 -225 5
-20 -8 -38 -13 -41 -10 -7 6 -62 -45 -62 -57 0 -5 14 6 31 24 l31 33 -27 -34
c-25 -33 -27 -43 -9 -85 6 -15 4 -17 -7 -11 -12 8 -12 6 0 -8 15 -18 26 -23
16 -7 -9 15 -2 13 49 -16 53 -30 66 -54 66 -122 0 -52 -24 -97 -46 -88 -8 3
-13 0 -11 -6 1 -6 -4 -13 -12 -16 -9 -3 -11 0 -6 8 5 9 4 11 -4 6 -6 -4 -9
-11 -7 -15 3 -4 -7 -20 -23 -35 -22 -21 -33 -25 -59 -20 -17 4 -36 12 -42 19
-5 6 -13 64 -16 129 -6 101 -9 116 -23 111 -13 -5 -14 -4 -3 6 20 21 31 -1 35
-76 l3 -70 2 71 c2 54 -2 75 -13 84 -27 22 -39 -3 -36 -75 2 -52 -2 -72 -19
-100 -13 -22 -23 -55 -25 -89 -5 -93 -60 -174 -162 -234 l-38 -22 35 31 c19
17 28 28 20 24 -33 -17 -58 -48 -53 -63 4 -8 2 -13 -3 -10 -27 17 -6 -158 28
-225 10 -21 16 -42 13 -47 -3 -4 7 -18 21 -29 15 -12 30 -36 34 -53 8 -32 8
-32 9 -5 1 18 -8 37 -26 54 -16 14 -22 24 -14 21 23 -7 48 -49 54 -89 l5 -35
-158 -32 c-87 -18 -165 -35 -173 -38 -12 -4 -15 4 -14 44 1 28 6 48 11 44 5
-3 6 0 2 7 -5 7 -11 10 -14 7 -3 -3 -13 1 -23 10 -13 12 -28 15 -56 10 -21 -4
-46 -7 -56 -8 -10 -1 -32 -15 -50 -31 l-32 -28 40 27 c34 24 31 18 -25 -39
-89 -92 -140 -92 -140 0 0 51 -15 61 -58 39 -45 -23 -76 -66 -112 -155 -25
-63 -43 -90 -77 -121 -54 -47 -146 -95 -168 -86 -11 4 -14 2 -9 -6 5 -8 2 -9
-9 -5 -10 4 -16 2 -14 -5 1 -6 -4 -13 -12 -16 -9 -3 -11 0 -6 9 15 25 -37 -25
-57 -56 -15 -22 -11 -20 17 10 35 38 36 39 12 5 -40 -56 -54 -91 -66 -161 -25
-146 -7 -214 90 -335 28 -35 48 -64 46 -64 -13 0 -109 133 -132 181 -14 30
-25 48 -25 41 0 -23 42 -96 91 -158 45 -57 93 -105 75 -76 -12 21 2 14 65 -33
34 -25 57 -45 52 -45 -5 0 -14 5 -21 12 -6 6 -15 8 -19 4 -4 -4 -1 -11 7 -16
11 -7 11 -10 2 -10 -21 0 -102 -81 -124 -124 -30 -58 -34 -142 -10 -188 11
-21 15 -35 10 -32 -6 4 -16 20 -24 38 -8 18 -13 24 -14 14 0 -10 14 -32 31
-50 17 -18 28 -28 25 -22 -4 8 8 10 39 6 40 -4 45 -2 56 21 13 28 43 37 121
37 66 0 98 -30 98 -92 0 -63 -11 -74 -41 -41 l-24 27 28 -17 27 -17 -2 42 c-1
38 -2 39 -5 10 -4 -33 -4 -33 -30 -17 -14 10 -22 12 -18 5 5 -8 3 -11 -6 -8
-8 3 -14 11 -14 18 0 7 -7 15 -15 17 -13 4 -13 3 0 -7 12 -9 10 -10 -10 -3
-14 4 -53 8 -87 8 -85 0 -135 -35 -183 -129 -29 -58 -35 -79 -34 -130 0 -34 3
-74 6 -90 6 -33 50 -76 76 -76 10 1 4 6 -13 14 -17 7 -37 21 -45 31 -11 14 -7
13 16 -4 19 -14 48 -23 71 -24 40 -2 40 -2 36 -37 -3 -24 3 -50 19 -80 31 -60
83 -90 161 -90 62 0 98 14 158 61 34 27 38 28 50 12 12 -14 12 -16 -1 -8 -8 4
-12 4 -7 0 10 -11 34 -15 139 -22 81 -5 166 9 263 42 17 6 17 5 5 -5 -13 -10
-13 -11 0 -7 8 2 15 10 15 17 0 7 6 15 14 18 9 3 11 0 6 -8 -5 -8 3 -5 18 6
39 29 77 94 76 129 l-1 30 -7 -35 c-9 -46 -23 -70 -58 -100 l-28 -25 26 30
c59 66 60 84 19 212 -17 51 -30 110 -30 130 0 37 25 99 59 142 l18 24 92 -49
c51 -26 97 -55 104 -63 10 -12 9 -13 -2 -6 -10 5 -12 4 -7 -4 4 -6 12 -9 17
-6 5 4 30 -8 56 -26 78 -52 93 -69 92 -103 -2 -27 -2 -28 -6 -6 -6 31 -35 64
-93 102 -44 29 -36 21 42 -42 23 -19 38 -40 40 -58 2 -15 8 -26 14 -25 7 1 19
-6 29 -16 15 -17 15 -22 1 -49 -8 -16 -12 -39 -9 -51 3 -11 -1 -28 -8 -37 -19
-23 -149 -86 -165 -80 -8 3 -13 0 -11 -6 1 -6 -4 -13 -12 -16 -9 -3 -11 0 -6
9 5 8 4 11 -1 6 -5 -5 -9 -14 -9 -20 0 -5 -6 -12 -14 -15 -9 -3 -11 0 -6 9 4
8 -16 -8 -44 -36 -29 -27 -57 -59 -63 -69 -6 -11 13 5 43 35 30 30 37 37 17
15 -41 -46 -77 -118 -78 -156 0 -14 8 -38 18 -54 l18 -30 -51 -25 -50 -26 2
-50 c1 -27 2 -61 3 -75 3 -30 -69 -98 -113 -107 -38 -8 -58 -41 -64 -110 l-6
-58 -66 -32 c-57 -28 -68 -30 -81 -18 -47 42 -134 56 -195 31 -19 -8 -35 -13
-35 -10 0 3 15 11 33 19 17 8 25 14 17 15 -20 0 -62 -29 -55 -39 5 -9 -24 -39
-39 -40 -5 -1 -10 -11 -11 -23 -1 -13 -5 -42 -9 -65 -8 -42 -9 -43 -46 -43
-21 0 -47 -3 -57 -6 -15 -5 -15 -4 -3 5 8 6 32 11 53 11 29 0 37 4 36 18 0 10
-3 12 -6 5 -2 -7 -19 -13 -37 -13 -27 0 -88 -29 -62 -30 5 0 3 -7 -4 -15 -7
-8 -16 -13 -20 -10 -5 3 -16 -5 -24 -17 -12 -16 -16 -44 -14 -103 l1 -80 6 87
c4 54 11 92 20 100 11 11 12 10 2 -9 -6 -13 -11 -75 -11 -150 0 -102 -3 -133
-16 -149 -15 -18 -15 -18 -5 3 6 12 10 34 10 50 -1 24 -2 23 -8 -9 -4 -20 -14
-45 -22 -54 -12 -15 -12 -17 0 -9 11 6 13 4 8 -9 -4 -10 -8 -34 -9 -54 -1 -37
-1 -37 -8 8 l-8 45 2 -43 c0 -23 6 -43 11 -43 6 0 15 -5 22 -11 9 -7 8 -15 -7
-31 -21 -22 -36 -78 -27 -101 4 -9 -12 -3 -40 14 -25 16 -62 34 -82 40 -117
36 -145 64 -156 160 -7 60 -11 68 -64 123 -61 65 -97 86 -184 111 -65 19 -74
16 -126 -38 -34 -35 -36 -43 -39 -137 l-2 -47 -43 5 c-29 4 -54 0 -75 -11 -37
-19 -46 -20 -36 -3 4 7 3 9 -2 4 -5 -5 -9 -14 -9 -19 0 -6 -6 -13 -14 -16 -8
-3 -11 0 -7 7 4 6 5 11 2 11 -13 0 -66 -85 -65 -104 1 -18 2 -17 9 5 9 32 41
81 47 75 3 -3 -4 -17 -16 -32 -15 -19 -21 -41 -21 -75 0 -48 0 -49 -32 -49
-18 -1 -44 -7 -58 -15 -31 -18 -43 -19 -35 -2 4 6 -9 -5 -29 -25 -21 -22 -36
-47 -35 -60 1 -19 2 -17 10 8 5 17 19 39 31 50 20 18 20 17 -2 -13 -18 -25
-24 -47 -25 -89 0 -45 -4 -58 -20 -66 -11 -6 -29 -18 -40 -27 -12 -9 -9 -4 6
10 14 15 32 28 39 31 9 3 9 12 1 38 -10 32 -10 32 -7 5 3 -24 -3 -35 -32 -60
-33 -29 -36 -36 -40 -99 -3 -51 0 -73 13 -93 13 -20 14 -28 4 -37 -9 -8 -10
-8 -5 1 4 7 0 23 -8 35 -9 12 -16 17 -16 11 0 -7 4 -14 9 -18 6 -3 7 -36 5
-74 -7 -85 10 -132 55 -152 32 -14 35 -19 46 -79 11 -60 56 -203 77 -243 10
-21 34 -55 53 -76 42 -46 46 -64 7 -31 -15 12 43 -46 128 -130 182 -178 277
-260 295 -254 10 4 286 -194 320 -229 17 -18 -55 33 -161 113 -102 77 -138
103 -119 82 33 -34 279 -210 290 -206 7 3 16 0 21 -7 5 -8 3 -10 -6 -4 -8 5
-11 4 -6 -3 4 -6 13 -9 20 -6 8 3 17 0 22 -7 5 -8 3 -10 -6 -4 -9 5 -11 4 -6
-4 4 -6 12 -9 17 -6 5 4 55 -23 111 -58 57 -35 122 -74 146 -86 26 -13 40 -26
36 -33 -4 -7 -3 -8 4 -4 6 4 57 -16 113 -44 124 -63 236 -106 311 -122 71 -15
146 0 213 43 26 17 53 28 60 25 7 -2 21 5 32 17 l18 22 -25 -20 -25 -20 19 23
c11 12 25 21 32 18 6 -2 29 14 50 36 22 23 33 38 27 34 -7 -4 -13 -5 -13 -2 0
8 71 106 77 106 6 0 -5 -17 -35 -57 -13 -18 -22 -33 -19 -33 11 0 65 83 61 94
-2 6 5 38 16 70 25 73 25 113 1 199 -18 66 -18 70 0 125 13 40 18 50 20 32 1
-17 3 -20 6 -8 3 14 15 18 54 18 30 0 64 8 86 20 21 11 31 20 23 20 -8 0 -24
-7 -34 -15 -30 -23 -156 -17 -156 7 0 5 8 4 19 -2 29 -15 113 -12 138 5 18 13
30 14 67 4 31 -8 54 -8 73 -1 58 21 67 22 28 2 -22 -11 -34 -20 -27 -20 21 0
73 30 67 40 -10 16 15 22 49 10 44 -14 116 3 159 39 19 15 26 18 17 7 -8 -11
-28 -27 -45 -38 -16 -10 -25 -18 -18 -18 7 0 27 13 46 30 27 24 33 35 31 62
-3 30 -3 31 5 8 6 -15 9 -19 10 -9 1 9 12 20 25 23 13 3 32 9 42 13 13 5 15 3
9 -7 -5 -9 -4 -11 4 -6 6 4 9 11 6 16 -6 9 13 25 30 25 6 0 9 10 7 23 -2 16 5
27 29 40 18 9 61 38 96 65 67 49 79 55 67 35 -4 -7 31 23 77 67 46 44 86 81
88 82 2 2 1 3 -3 3 -5 0 -43 -33 -85 -72 l-76 -72 64 66 c70 73 161 141 192
143 10 1 22 5 26 10 5 4 1 5 -7 1 -8 -4 -4 1 10 13 47 38 195 110 355 171 171
66 269 95 380 110 90 13 334 82 450 127 50 20 144 61 210 93 66 32 151 72 189
89 37 17 108 54 157 82 51 29 96 48 105 45 9 -4 12 -2 8 5 -4 7 -1 10 7 7 13
-5 89 27 89 37 0 3 -18 -4 -40 -15 -60 -30 -48 -17 17 20 51 29 61 31 110 25
122 -15 270 -71 351 -133 18 -14 42 -43 53 -64 19 -38 19 -38 -2 -80 -55 -109
-210 -281 -322 -357 -128 -87 -264 -125 -417 -118 -96 4 -230 37 -310 76 -38
18 -60 13 -60 -13 0 -5 7 -1 15 10 10 13 8 2 -5 -33 -11 -29 -23 -76 -26 -105
-8 -72 25 -207 78 -317 23 -47 44 -90 46 -95 3 -5 -1 -5 -9 -1 -7 5 -1 -7 14
-26 31 -42 104 -102 126 -105 32 -5 125 -43 106 -43 -11 -1 -39 8 -63 19 -23
11 -40 15 -37 10 9 -14 93 -43 110 -37 8 4 15 17 15 30 0 53 103 106 179 92
60 -11 98 -41 127 -102 23 -46 28 -72 32 -159 3 -67 9 -104 16 -104 6 0 4 -5
-4 -10 -8 -5 -10 -10 -4 -10 15 0 203 195 259 270 27 36 53 71 58 78 5 6 7 12
5 12 -3 0 -36 -40 -73 -90 -38 -49 -71 -88 -74 -85 -2 3 7 18 21 33 13 15 46
57 73 94 27 37 52 65 56 62 4 -2 11 1 15 7 4 8 3 9 -4 5 -21 -13 -13 1 56 107
58 89 146 253 188 352 81 188 114 305 120 425 11 200 -31 317 -160 445 -89 89
-147 122 -225 132 l-51 6 48 22 c27 12 64 36 84 54 20 17 42 31 49 31 7 0 56
25 108 54 53 30 116 59 141 65 59 13 94 52 87 97 -6 37 7 53 69 84 45 23 47
24 39 8 -4 -7 15 10 42 37 27 28 58 56 69 63 16 11 15 11 -6 1 -14 -6 -42 -30
-63 -53 l-38 -41 33 44 c37 49 140 106 213 117 57 8 100 -14 115 -61 15 -45 7
-81 -32 -141 -32 -51 -155 -184 -170 -184 -5 0 18 25 51 56 63 58 141 165 141
192 0 9 -12 -9 -27 -39 -17 -33 -59 -86 -112 -138 -46 -46 -78 -81 -70 -77 8
4 3 -2 -11 -14 -15 -13 -33 -20 -47 -17 -14 2 -20 0 -16 -6 4 -6 0 -8 -9 -4
-18 6 -70 -43 -74 -70 -2 -10 -14 -49 -28 -88 -19 -53 -26 -90 -26 -150 0
-126 28 -194 100 -243 28 -19 45 -23 87 -20 l52 3 -6 -30 c-9 -47 -37 -107
-69 -144 -27 -32 -130 -88 -142 -77 -18 18 -150 -142 -136 -165 3 -5 -4 -33
-15 -63 -26 -70 -42 -249 -31 -348 10 -83 29 -133 64 -160 11 -10 17 -18 13
-18 -5 0 -23 15 -40 33 -20 21 -26 25 -18 10 19 -37 46 -49 109 -47 41 1 71 8
95 22 29 17 38 18 53 8 13 -10 16 -24 12 -75 -4 -55 -8 -66 -38 -94 l-35 -32
29 32 c16 18 28 34 25 36 -2 2 -20 -15 -39 -37 -19 -22 -29 -36 -21 -31 9 5
12 4 9 -6 -3 -8 -10 -13 -14 -12 -13 2 -8 -74 7 -108 6 -15 8 -33 3 -40 -5 -8
-3 -9 6 -4 8 5 11 3 8 -6 -6 -17 10 -51 21 -45 9 6 48 -33 43 -42 -2 -4 2 -8
10 -10 9 -2 8 0 -2 8 -12 9 -10 10 10 4 30 -8 50 -23 50 -37 0 -5 -10 -2 -22
9 l-23 19 18 -22 c11 -12 25 -19 33 -16 17 6 17 8 -1 58 -29 81 -11 184 48
271 26 40 39 50 73 57 l41 8 6 109 c5 91 3 120 -12 169 l-18 60 40 -27 c35
-24 52 -27 144 -30 114 -5 165 8 226 55 21 16 18 12 -8 -12 -22 -21 -31 -33
-20 -27 11 6 34 25 50 43 17 18 24 29 16 24 -9 -5 -12 -3 -9 6 3 8 11 14 18
14 19 0 29 32 28 90 -1 50 -1 49 -8 -13 -9 -80 -20 -93 -13 -15 7 73 -7 122
-53 198 -77 126 -124 211 -124 225 0 13 1 13 10 0 15 -24 12 4 -5 41 l-16 34
6 -30 c4 -26 4 -27 -6 -11 -27 44 -3 326 38 451 30 94 82 197 94 189 8 -5 9
-3 5 5 -7 11 56 121 70 121 3 0 2 -4 -1 -10 -16 -25 7 -6 37 32 18 23 27 39
21 35 -24 -15 -13 6 30 57 24 28 52 63 61 78 10 15 23 25 29 21 6 -3 7 -1 3 5
-4 6 1 36 9 67 17 58 18 225 1 222 -5 -1 -11 4 -14 12 -3 9 0 11 9 7 8 -4 -1
6 -19 23 -18 17 -38 31 -45 31 -6 0 3 -9 21 -20 44 -27 41 -32 -5 -8 -43 22
-127 20 -198 -5 l-41 -15 26 52 c19 39 25 66 25 117 0 38 4 62 8 55 6 -7 7 -6
4 4 -2 8 -10 15 -17 15 -7 0 -15 6 -18 14 -3 9 0 11 9 5 11 -6 11 -4 0 10 -15
18 -64 46 -78 46 -4 -1 9 -10 30 -21 52 -27 46 -32 -10 -7 -73 32 -156 22
-274 -34 -52 -25 -119 -64 -149 -88 -30 -24 -46 -32 -34 -19 31 36 37 56 40
144 2 64 0 83 -14 98 -11 12 -18 38 -19 71 -1 28 -2 60 -2 71 -1 11 2 40 6 65
l7 45 7 -40 7 -40 -2 40 c0 22 -5 40 -11 40 -15 0 -36 16 -31 23 2 4 -2 16
-10 27 -12 15 -14 16 -14 3 0 -9 6 -19 13 -21 7 -3 5 -6 -5 -6 -15 -1 -18 8
-18 62 0 44 -6 71 -20 95 -11 18 -20 35 -20 37 0 3 36 5 80 5 70 0 86 -3 120
-26 36 -24 45 -38 98 -148 3 -5 -2 -5 -9 -1 -8 5 -11 4 -6 -1 5 -5 14 -9 20
-9 5 0 12 -6 15 -14 3 -9 0 -11 -9 -7 -8 4 10 -15 40 -43 47 -44 187 -129 196
-119 2 2 -29 20 -68 41 -40 20 -92 55 -117 77 -43 38 -41 38 20 -7 36 -27 94
-62 130 -78 59 -27 74 -30 170 -30 129 1 181 16 315 90 87 47 102 50 39 7 -11
-7 -6 -6 11 2 17 8 41 27 55 42 14 16 17 22 8 15 -23 -17 -24 2 -1 20 9 8 33
40 54 72 30 46 44 85 69 195 18 75 59 247 91 382 32 135 68 288 79 340 11 52
28 127 39 165 36 136 101 651 101 805 -1 164 -43 338 -104 427 -30 44 -32 51
-19 69 14 18 13 47 -3 88 -6 15 -4 17 7 11 8 -4 -2 8 -20 28 -19 21 -39 37
-43 37 -5 0 6 -14 24 -31 l33 -31 -34 27 c-19 14 -42 24 -52 22 -12 -3 -19 2
-23 18 -9 36 -72 85 -109 85 -18 0 -39 -4 -47 -10 -11 -7 -17 -2 -26 19 -13
30 -83 71 -123 71 -27 0 -58 -15 -88 -43 -22 -19 -23 -19 -23 -2 0 10 -8 28
-17 40 -10 11 -7 9 7 -5 l26 -25 33 22 c19 13 30 23 25 23 -5 0 -20 -7 -33
-16 -22 -16 -24 -15 -58 17 -20 19 -32 28 -28 20 6 -11 4 -13 -11 -7 -102 42
-181 20 -223 -62 l-12 -23 -27 29 c-53 56 -125 78 -197 59 -23 -6 -27 -5 -15
3 13 10 13 11 0 7 -8 -2 -15 -9 -15 -15 0 -6 -18 -24 -41 -40 -23 -17 -51 -46
-63 -66 -13 -20 -25 -36 -28 -36 -12 0 32 58 75 99 36 35 39 39 12 19 -49 -35
-101 -105 -93 -125 4 -11 3 -14 -5 -9 -8 5 -10 1 -5 -10 3 -10 2 -15 -3 -12
-5 4 -10 -4 -10 -15 -1 -12 -7 -48 -15 -80 -15 -63 -2 -156 25 -186 21 -23 22
-126 2 -190 -34 -116 -47 -207 -48 -340 0 -109 -4 -144 -19 -183 -21 -53 -25
-150 -9 -228 11 -60 -3 -85 -109 -190 -107 -107 -150 -129 -414 -219 -114 -39
-243 -89 -287 -111 -48 -24 -81 -36 -85 -29 -12 18 14 37 93 69 42 18 101 45
129 60 29 15 50 23 46 17 -3 -7 -2 -8 3 -4 5 5 9 12 9 16 0 4 20 29 45 57 43
47 40 40 -8 -25 -37 -49 -19 -36 21 15 22 28 33 52 30 61 -4 11 -2 14 5 9 7
-4 10 -2 7 7 -3 7 1 30 10 51 11 26 15 62 13 121 l-3 84 40 41 c43 44 124 80
180 80 l35 0 0 -47 c0 -57 -10 -99 -19 -84 -4 6 -8 -6 -8 -26 -1 -35 0 -36 13
-18 8 10 14 23 14 28 0 4 4 5 10 2 6 -4 7 1 3 11 -5 13 -3 15 7 9 9 -5 11 -4
6 3 -4 6 0 39 9 73 9 34 14 72 11 84 -7 28 -80 95 -104 95 -10 -1 -5 -6 13
-14 43 -18 85 -72 84 -104 -1 -25 -2 -24 -9 6 -17 71 -90 111 -163 91 -20 -5
-42 -7 -47 -4 -6 4 -9 1 -8 -6 2 -6 -3 -14 -11 -17 -9 -3 -11 0 -6 9 5 7 -6 3
-23 -9 -17 -13 -35 -28 -38 -35 -4 -7 1 -5 12 4 37 31 49 32 20 1 -16 -17 -33
-29 -37 -26 -4 2 -24 -20 -42 -49 -30 -46 -82 -97 -100 -97 -7 0 3 65 18 117
11 35 10 44 -1 54 -16 13 -45 5 -42 -12 2 -6 -3 -14 -11 -17 -9 -3 -11 0 -6 9
4 8 -9 -3 -29 -24 -37 -39 -42 -47 -28 -47 4 0 16 14 26 31 10 17 20 28 22 26
6 -5 -38 -76 -47 -77 -3 0 -14 19 -25 43 -10 23 -36 62 -58 87 l-39 45 44 -45
c24 -25 50 -55 57 -65 7 -11 6 -6 -2 10 -16 34 -85 107 -95 100 -4 -2 -38 5
-76 15 -39 11 -81 19 -95 18 -19 0 -17 -2 10 -8 l35 -7 -31 -2 c-47 -2 -185
-40 -222 -62 -38 -22 -46 -24 -36 -8 3 6 -6 3 -21 -7 -39 -25 -85 -92 -78
-111 4 -9 2 -14 -3 -11 -5 4 -11 -34 -12 -90 -4 -109 -22 -172 -83 -294 -25
-49 -44 -76 -51 -72 -7 4 -8 3 -4 -5 15 -23 -75 -131 -134 -161 -48 -25 -127
-38 -181 -31 -37 5 -48 13 -81 56 -21 28 -36 55 -33 62 2 7 -1 15 -7 19 -7 5
-8 2 -3 -7 8 -12 6 -12 -8 0 -19 15 -23 36 -5 25 6 -4 -4 13 -23 38 -19 25
-40 54 -47 64 -10 16 -11 15 -1 -6 7 -14 23 -41 37 -60 l24 -35 -30 33 c-31
35 -132 221 -132 243 0 11 2 11 11 -1 9 -13 10 -13 6 0 -2 8 -9 15 -15 15 -7
0 -21 15 -32 33 -23 38 -25 46 -7 36 8 -5 7 -2 -2 9 -8 10 -16 15 -19 12 -3
-2 -20 9 -39 25 -18 17 -44 30 -56 30 -20 1 -20 2 -5 11 18 10 46 12 373 29
149 8 210 15 282 35 87 23 226 85 285 126 30 22 42 24 32 7 -5 -9 -3 -9 9 1 9
7 15 17 12 21 -2 4 9 19 25 35 52 50 99 203 86 284 -4 28 -3 31 4 16 l10 -20
-3 20 c-1 11 -9 20 -16 20 -8 0 -16 6 -19 14 -3 9 0 11 9 6 10 -6 10 -3 -1 8
-24 25 -84 47 -101 36 -10 -6 -6 -9 16 -9 17 0 41 -8 55 -16 16 -10 18 -13 5
-8 -40 14 -83 16 -106 3 -13 -6 8 22 47 63 139 147 184 297 136 455 -12 38
-35 88 -52 111 -33 45 -37 57 -17 47 6 -4 -22 27 -64 68 -42 41 -87 80 -100
87 -18 8 -16 5 6 -12 17 -12 57 -49 90 -82 l60 -59 -68 61 c-37 34 -81 69 -98
77 -17 9 -27 21 -23 27 4 7 3 8 -4 4 -6 -3 -39 3 -74 15 -45 15 -82 20 -133
18 -60 -2 -79 2 -135 28 -128 60 -242 68 -329 23 -35 -17 -63 -22 -155 -24
-128 -3 -190 -20 -266 -71 -56 -38 -65 -42 -54 -22 4 6 -1 4 -12 -5 -19 -17
-21 -16 -60 34 -21 29 -44 63 -51 78 -7 14 -12 18 -13 10 0 -8 24 -47 53 -86
46 -61 56 -69 66 -55 9 13 9 11 0 -7 -6 -13 -12 -22 -14 -20 -34 38 -109 146
-115 166 -10 36 12 117 40 146 12 14 45 35 73 47 42 19 48 24 29 27 -12 2 -47
-4 -77 -13 -31 -9 -60 -13 -65 -10 -5 3 -21 -6 -37 -21 -15 -14 -22 -22 -14
-18 9 4 12 2 9 -7 -3 -8 -10 -14 -15 -14 -6 0 -15 -4 -20 -9 -5 -5 -3 -6 5 -2
16 9 16 6 -8 -47 -14 -32 -19 -57 -15 -84 5 -28 0 -49 -17 -83 -19 -38 -31
-48 -73 -62 -70 -24 -167 -24 -189 1 -13 14 -14 24 -7 44 14 37 51 67 83 67
39 0 91 -27 82 -43 -5 -9 -4 -9 5 -1 10 9 9 20 -3 49 -19 45 -19 48 -4 39 7
-4 8 -3 4 5 -4 6 -11 9 -16 6 -8 -5 -36 23 -33 34 1 3 -1 8 -4 11 -4 3 -2 -1
2 -9 7 -11 4 -13 -11 -5 -10 5 -50 9 -89 9 -38 0 -79 -4 -89 -9 -15 -7 -18 -6
-12 5 5 8 -21 -17 -57 -54 -61 -65 -67 -68 -103 -65 -37 4 -39 6 -42 40 -7 80
56 135 133 118 22 -5 41 -7 44 -4 2 2 -2 4 -10 4 -8 0 5 9 27 19 46 21 74 54
74 87 0 12 -10 47 -21 78 l-21 55 22 35 c12 20 24 36 26 36 3 0 2 -5 -2 -12
-5 -7 -3 -8 7 -2 8 5 22 7 32 6 9 -2 17 1 17 6 0 15 -26 22 -39 9 -8 -8 -11
-8 -11 0 0 12 30 40 39 35 3 -2 7 2 9 10 2 9 0 8 -7 -2 -9 -13 -11 -13 -11 2
0 9 -5 20 -12 24 -6 4 -8 3 -5 -3z m-80 -134 c-3 -11 0 -38 7 -60 12 -36 12
-42 -7 -67 -11 -15 -40 -38 -64 -52 -40 -23 -55 -25 -161 -25 -106 0 -119 -2
-148 -23 -33 -25 -60 -75 -60 -113 0 -31 27 -82 51 -98 33 -20 130 -30 206
-21 l68 9 67 71 68 72 70 -4 c44 -2 75 -9 85 -18 12 -13 6 -15 -55 -15 -78 0
-106 -15 -152 -81 -63 -90 -59 -140 10 -122 20 6 82 11 137 13 157 5 215 28
249 99 9 19 16 56 16 83 0 79 17 86 25 9 4 -36 11 -69 16 -72 12 -7 11 -87 -1
-120 -6 -15 -31 -55 -57 -88 -25 -34 -49 -70 -53 -81 -4 -11 -20 -48 -34 -81
-17 -40 -26 -80 -26 -114 0 -47 4 -56 39 -91 30 -31 46 -39 74 -39 57 0 86 16
103 56 18 43 12 79 -18 112 -29 30 -53 28 -80 -8 -22 -30 -22 -30 -30 -9 -6
15 -3 31 9 52 61 103 169 75 164 -43 -1 -25 2 -58 5 -75 l7 -30 18 40 c10 22
19 35 19 28 0 -21 31 -43 60 -43 34 0 38 5 50 62 9 40 9 39 4 -12 -3 -30 -7
-88 -9 -129 -3 -67 -6 -76 -36 -107 -18 -19 -38 -34 -45 -34 -7 0 -42 -36 -78
-80 -48 -57 -73 -80 -89 -79 -27 0 -199 90 -204 105 -7 22 54 54 118 63 56 7
67 13 96 46 43 49 44 68 3 54 -21 -8 -40 -7 -66 1 -22 8 -60 10 -97 6 -80 -8
-105 5 -139 74 -37 72 -36 116 2 168 17 23 34 42 39 42 20 0 42 156 24 173 -3
4 -19 -16 -35 -44 -42 -74 -87 -90 -240 -90 -115 1 -118 0 -143 -27 -26 -28
-34 -20 -12 13 42 61 20 101 -51 90 -55 -8 -134 10 -159 37 -12 14 -18 36 -18
70 0 48 0 49 -18 27 -29 -36 -50 -126 -43 -183 17 -137 18 -176 8 -176 -26 0
-77 59 -106 124 -18 39 -41 78 -51 86 -17 14 -18 14 -6 -9 16 -30 16 -139 1
-187 -8 -22 -10 -58 -6 -90 5 -40 3 -54 -6 -54 -7 0 -53 -5 -103 -10 -116 -14
-140 -8 -164 38 l-19 36 -7 -42 c-10 -62 3 -119 37 -158 16 -18 36 -55 43 -81
7 -27 16 -55 20 -64 5 -13 -4 -20 -41 -33 -26 -9 -53 -16 -60 -16 -14 0 -143
130 -161 163 -45 79 -35 168 26 232 66 68 74 94 68 209 -3 56 -3 92 0 81 8
-32 32 -53 68 -59 l34 -7 -6 -62 c-9 -95 25 -147 94 -147 36 0 74 37 102 100
29 64 27 104 -6 130 -14 11 -31 19 -37 17 -17 -5 -56 -79 -56 -106 0 -20 4
-22 25 -17 34 9 32 -6 -4 -27 -27 -16 -28 -16 -40 9 -16 37 -13 105 7 135 9
15 31 38 49 53 34 29 60 107 48 148 -18 64 -30 80 -76 103 -56 29 -63 38 -55
70 4 15 23 32 58 49 52 26 97 32 159 19 28 -5 30 -7 14 -14 -11 -4 -33 -8 -50
-8 -16 -1 -45 -10 -62 -21 -40 -24 -46 -70 -12 -93 24 -17 48 -78 49 -122 1
-69 62 -76 112 -15 17 23 51 49 74 59 23 11 47 29 54 41 6 12 15 72 20 133 14
185 47 237 149 237 61 0 81 -11 81 -46 0 -12 10 -34 22 -49 19 -24 26 -27 65
-21 84 11 121 45 137 125 5 29 22 61 31 61 2 0 1 -9 -2 -21z m1294 -353 c62
-16 152 -57 195 -87 l30 -22 -11 21 c-11 21 -10 22 42 22 111 0 226 -59 328
-168 135 -144 161 -300 77 -467 -35 -70 -193 -236 -276 -292 -29 -19 -51 -37
-49 -40 3 -2 50 16 105 41 113 52 183 61 202 27 22 -41 5 -164 -33 -237 -26
-50 -89 -99 -199 -154 -137 -68 -220 -88 -408 -100 -484 -31 -561 -45 -667
-115 -62 -41 -96 -89 -129 -180 -36 -99 -33 -177 9 -268 42 -90 129 -200 199
-254 61 -47 173 -105 238 -124 134 -38 24 -36 -185 3 -123 24 -348 217 -412
355 -75 161 -48 314 92 529 67 103 130 172 199 218 81 54 109 55 208 9 79 -36
88 -38 178 -37 113 1 179 23 268 89 127 93 176 167 188 283 16 152 -75 224
-192 151 -85 -52 -122 -160 -71 -206 24 -23 87 -57 93 -51 2 2 -17 21 -41 42
-36 30 -45 43 -45 69 0 42 28 84 81 119 53 35 88 36 120 2 21 -22 24 -35 23
-97 -1 -100 -29 -161 -108 -235 -59 -54 -153 -119 -161 -110 -3 2 1 21 7 41
11 35 9 42 -32 120 -66 123 -60 194 24 320 20 28 51 69 70 90 31 33 40 37 84
37 60 0 108 19 143 57 42 44 49 67 49 148 0 86 -15 132 -55 163 -42 33 -88 27
-140 -18 -13 -11 -36 -17 -66 -17 -58 0 -91 -23 -124 -87 -31 -61 -31 -79 -4
-105 l21 -20 -54 6 c-42 4 -63 1 -94 -15 l-39 -20 -65 25 c-72 26 -101 24
-138 -10 -23 -22 -24 -22 -38 -3 -21 29 -17 80 10 134 26 53 46 142 23 108 -6
-10 -27 -36 -44 -58 -31 -37 -73 -147 -73 -190 0 -15 -6 -19 -27 -16 -28 3
-28 4 -33 88 -4 56 -11 93 -22 108 -15 22 -15 26 4 58 16 28 19 45 14 84 -6
46 -5 50 28 82 74 72 183 108 326 108 74 0 104 -4 133 -19 45 -23 52 -4 10 27
l-28 20 50 15 c63 20 126 21 192 3z m2612 -143 c16 -13 27 -32 29 -51 3 -30 3
-30 -36 -25 -24 3 -68 -3 -116 -17 -43 -12 -80 -19 -83 -16 -3 3 -3 20 1 39 6
32 44 78 76 90 28 11 102 -1 129 -20z m-314 -24 c29 -21 75 -83 75 -103 0 -4
-10 0 -22 8 -50 35 -132 10 -214 -66 -58 -53 -79 -90 -95 -163 -17 -84 -23
-94 -40 -64 -9 15 -14 56 -14 109 0 80 2 90 39 158 74 138 178 184 271 121z
m-2129 -153 c26 -21 28 -30 32 -112 3 -81 2 -92 -20 -124 -34 -51 -82 -71
-188 -77 -102 -7 -120 1 -120 51 0 38 7 47 45 66 l30 15 -43 3 c-54 4 -60 19
-32 78 23 47 69 84 105 84 18 0 20 -5 17 -35 -4 -30 -1 -35 16 -35 15 0 19 5
15 20 -6 23 10 46 52 72 40 24 58 23 91 -6z m-1729 -231 c37 -8 95 -24 128
-35 l60 -20 -145 5 -145 6 -60 -40 c-33 -23 -53 -41 -45 -41 8 0 38 16 66 35
l51 36 139 -11 c251 -20 241 -18 260 -48 13 -20 14 -24 2 -15 -8 7 -17 11 -20
8 -3 -3 -48 -1 -100 5 -171 19 -262 14 -351 -21 -26 -11 -56 -19 -66 -19 -10
0 -24 -6 -30 -14 -7 -8 -30 -17 -51 -21 -47 -8 -59 -21 -67 -72 l-6 -38 41 37
c23 21 54 40 69 44 16 4 34 11 41 17 7 6 36 21 65 35 50 24 58 25 222 23 154
-2 170 -4 183 -22 7 -10 21 -19 30 -19 10 0 12 -3 6 -9 -5 -5 -58 -12 -119
-15 -60 -2 -138 -10 -173 -16 -52 -9 -66 -8 -86 5 -22 15 -25 14 -54 -10 -16
-14 -35 -25 -41 -25 -28 0 -81 -38 -156 -109 -69 -67 -94 -83 -180 -121 -55
-23 -130 -58 -167 -76 -38 -19 -83 -34 -103 -34 -19 0 -99 -17 -178 -37 -152
-39 -227 -44 -278 -17 -22 11 -29 22 -29 43 0 16 6 33 13 39 17 14 212 56 402
87 88 14 180 32 204 40 36 12 47 13 54 3 6 -10 10 -10 13 -1 36 87 271 363
360 422 41 26 57 31 110 31 35 0 93 -7 131 -15z m1234 -45 c12 0 36 9 53 19
27 17 66 25 104 22 6 -1 12 -9 12 -18 0 -16 -2 -16 -11 -3 -9 12 -9 11 -4 -5
4 -11 9 -29 12 -40 4 -17 3 -18 -7 -5 -8 10 -10 11 -8 2 2 -8 7 -13 11 -12 4
0 19 -8 34 -20 14 -11 35 -20 46 -20 16 0 13 -7 -21 -44 -22 -24 -48 -58 -57
-75 -9 -17 -20 -29 -25 -26 -6 4 -7 -1 -3 -11 3 -10 2 -15 -3 -12 -10 6 -10 4
-20 -109 -6 -71 -6 -74 36 -148 41 -76 49 -110 36 -152 -6 -18 -17 -23 -63
-29 -30 -3 -81 -4 -112 -1 -58 5 -156 41 -148 54 3 5 -24 9 -59 11 -54 3 -72
-1 -111 -22 -50 -29 -57 -31 -48 -16 10 16 -1 11 -16 -7 -12 -15 -12 -16 1 -8
8 5 -17 -22 -56 -61 -93 -90 -211 -274 -247 -384 -4 -14 -103 -47 -112 -38
-11 11 -34 124 -40 200 -10 123 -4 142 58 172 28 14 64 26 80 26 16 0 56 7 88
15 33 9 65 13 71 9 7 -5 8 -3 3 6 -6 10 -4 12 7 7 18 -6 78 52 71 69 -2 8 -18
10 -43 7 -35 -5 -41 -3 -49 18 -13 37 -3 52 33 46 17 -2 41 -1 54 4 21 8 23
14 20 82 -3 67 0 77 23 108 23 29 92 71 184 111 20 9 20 9 1 -6 -11 -9 -25
-16 -32 -16 -7 0 -15 -4 -19 -10 -11 -18 53 11 72 32 10 12 12 18 6 14 -17
-10 -16 0 3 29 24 37 30 134 10 191 -22 65 -21 73 16 89 30 12 37 11 90 -16
32 -16 67 -29 79 -29z m-1255 -264 c-6 19 -1 22 46 27 84 11 98 9 98 -10 0
-16 -8 -18 -56 -15 -44 3 -55 1 -52 -10 3 -7 30 -17 66 -22 34 -5 62 -13 62
-17 0 -5 5 -9 10 -9 6 0 10 7 10 15 0 10 10 15 30 15 17 0 30 -4 30 -10 0 -17
17 -11 22 8 3 12 22 23 51 31 25 7 48 19 51 27 11 30 53 15 89 -31 62 -80 69
-185 26 -359 -75 -298 -309 -453 -604 -401 -178 31 -332 134 -400 265 -12 23
-14 35 -6 38 6 2 9 7 6 12 -3 4 0 31 7 60 11 48 16 54 79 95 43 28 95 76 149
139 75 87 90 100 112 97 4 0 14 21 22 47 9 26 23 58 32 71 l16 23 55 -54 c37
-36 53 -46 49 -32z m-776 -442 c0 -48 4 -59 29 -85 l29 -28 -36 -7 c-19 -4
-47 -13 -61 -20 -34 -18 -66 -18 -85 2 -25 25 -19 41 22 57 20 8 46 24 56 36
16 18 18 26 9 56 -8 25 -8 35 1 39 31 12 36 5 36 -50z m-60 2 c0 -31 -4 -35
-48 -54 -89 -38 -101 -77 -46 -149 l24 -32 -29 -46 c-43 -68 -98 -105 -166
-112 -45 -5 -61 -12 -90 -40 -19 -19 -47 -57 -60 -84 l-26 -50 -44 31 c-53 37
-58 43 -59 88 -1 47 40 75 96 66 50 -8 75 2 93 36 21 41 19 76 -7 94 -27 19
-20 27 45 51 57 22 77 53 77 123 l0 49 108 30 c59 17 113 32 120 32 7 1 12
-12 12 -33z m3428 -33 c45 -33 91 -101 108 -160 15 -51 15 -58 -1 -99 -9 -24
-30 -55 -47 -69 -60 -51 -233 -125 -290 -125 -26 0 -51 56 -44 98 13 81 107
219 140 206 18 -7 36 -57 36 -101 0 -23 -8 -42 -25 -58 -39 -39 -61 -28 -57
30 2 28 1 29 -13 11 -41 -54 2 -112 64 -86 73 30 82 192 12 229 -46 25 -129
-57 -171 -167 -24 -63 -25 -91 -6 -137 30 -70 95 -69 250 3 129 61 176 111
191 202 9 60 37 120 65 145 l23 20 -7 -20 c-20 -52 -30 -126 -20 -143 29 -46
93 -13 148 76 43 70 89 116 138 136 50 21 91 20 119 -3 26 -21 25 -22 -51 -36
-55 -11 -129 -55 -163 -99 -31 -39 -32 -43 -32 -141 0 -87 -3 -107 -25 -150
-41 -81 -83 -115 -215 -174 -66 -29 -130 -62 -142 -73 -18 -17 -30 -20 -70
-14 -38 5 -57 2 -86 -13 -35 -18 -41 -18 -72 -5 -19 8 -48 14 -65 14 -39 0
-39 21 -1 82 34 53 79 88 114 88 61 0 39 -43 -32 -64 -34 -10 -42 -16 -29 -21
24 -10 105 31 114 57 7 25 -17 48 -50 48 -61 0 -166 -113 -166 -178 0 -11 -13
-25 -32 -34 -18 -9 -53 -34 -78 -55 -37 -33 -52 -40 -87 -40 -86 0 -180 -90
-199 -190 -3 -18 -9 -33 -13 -33 -8 0 -80 75 -153 160 l-56 65 71 2 c155 2
240 70 341 271 75 149 86 183 88 281 3 78 6 93 33 137 39 63 111 106 219 133
100 25 185 23 224 -6z m-3253 -227 c48 -55 80 -99 80 -110 0 -6 40 -12 90 -14
50 -2 98 -8 107 -13 31 -16 71 -9 127 22 l55 32 39 -44 c51 -58 77 -110 84
-167 7 -62 -18 -87 -81 -83 -27 1 -47 -3 -54 -12 -10 -11 -19 -12 -47 -3 -19
6 -35 14 -35 18 0 4 8 5 18 1 9 -3 14 -3 10 1 -3 4 -14 9 -24 10 -10 2 -20 9
-22 16 -3 7 0 10 7 6 21 -13 11 0 -30 39 -23 22 -38 34 -34 26 5 -9 3 -12 -6
-9 -8 3 -14 11 -14 18 0 7 -7 15 -15 17 -13 4 -13 3 0 -6 11 -8 4 -9 -25 -4
-47 7 -68 21 -28 18 16 -1 19 0 8 2 -11 3 -26 10 -34 16 -12 10 -13 9 -7 -2 6
-9 4 -12 -5 -9 -8 3 -14 10 -14 16 0 5 -4 14 -9 19 -5 5 -6 2 -1 -6 5 -9 3
-12 -6 -9 -8 3 -13 10 -12 15 1 7 -35 10 -95 9 -89 -1 -104 -4 -182 -39 -47
-21 -139 -59 -205 -83 l-120 -44 -52 16 c-29 9 -53 21 -53 26 0 15 39 86 51
94 8 5 9 3 4 -7 -4 -8 5 -2 22 14 22 20 40 27 74 29 l44 1 -44 4 c-35 3 -48 0
-67 -18 -13 -12 -24 -18 -24 -12 0 20 44 40 98 45 68 7 126 47 170 119 34 55
39 58 97 45 21 -4 24 -4 10 2 -18 8 -18 9 5 15 14 3 45 5 69 3 45 -3 49 -7
104 -78 12 -16 11 -12 -3 13 -29 52 -56 72 -94 73 -19 1 -32 5 -29 10 11 17
69 -5 98 -38z m1076 -101 c13 -75 42 -142 76 -177 26 -27 51 -39 38 -18 -8 12
5 13 23 1 32 -20 7 -45 -78 -79 -94 -37 -146 -79 -156 -125 -5 -23 -2 -34 12
-44 26 -19 28 -17 53 28 13 22 33 44 46 49 12 5 48 25 79 45 32 20 59 35 60
33 1 -1 12 -29 23 -60 l21 -58 -28 -44 c-15 -24 -39 -51 -51 -60 -23 -16 -24
-16 -27 4 -3 18 -6 17 -29 -10 -34 -41 -47 -38 -40 10 6 50 -3 51 -28 4 -19
-35 -78 -84 -101 -84 -7 0 -17 14 -23 30 -13 38 -22 39 -15 1 l6 -30 -60 18
c-33 10 -65 22 -71 25 -25 16 -9 -12 19 -33 17 -12 28 -26 25 -32 -4 -5 4 -9
16 -9 22 0 22 0 3 21 -18 20 -18 20 11 13 42 -10 42 -9 48 -51 7 -38 70 -254
103 -346 17 -50 37 -68 56 -49 12 12 4 51 -59 272 l-44 155 23 15 c13 8 35 27
51 42 22 22 27 23 27 9 0 -25 10 -32 31 -21 14 8 24 3 48 -20 38 -38 64 -39
27 -1 -37 39 -16 51 29 16 27 -20 35 -23 35 -10 0 8 -11 21 -25 27 -31 14 -31
15 5 58 27 31 30 32 30 12 0 -12 -5 -22 -11 -22 -17 0 3 -21 40 -43 17 -10 31
-14 31 -8 0 6 -11 16 -25 24 l-26 13 21 19 c19 17 21 17 40 0 11 -10 20 -26
20 -36 0 -9 -9 -38 -20 -64 -11 -26 -20 -49 -20 -51 0 -11 24 -2 37 14 8 9 6
1 -5 -18 -81 -140 -83 -147 -58 -137 7 3 28 -9 45 -27 l31 -32 -20 -22 c-16
-17 -17 -22 -6 -22 9 0 20 9 26 21 9 16 14 18 25 9 11 -9 11 -16 -3 -41 -9
-16 -24 -29 -32 -30 -17 -1 -15 0 -124 -23 -43 -9 -80 -16 -82 -16 -12 0 -1
-41 14 -49 16 -10 16 -10 -1 -11 -10 0 -15 -5 -12 -10 4 -6 11 -8 16 -5 5 3 6
-1 3 -9 -10 -27 -22 -18 -40 29 -9 25 -20 45 -25 45 -10 0 7 -57 26 -87 21
-31 13 -40 -21 -24 -18 8 -30 8 -39 1 -16 -13 -36 9 -51 59 l-12 36 -1 -36
c-1 -23 7 -46 19 -62 24 -30 13 -43 -18 -21 -17 12 -20 21 -15 45 4 21 1 34
-8 40 -23 14 -32 11 -78 -30 -41 -36 -46 -38 -58 -23 -11 15 -12 15 -13 -6 0
-17 -11 -28 -42 -42 -42 -19 -43 -19 -52 0 -6 13 2 38 33 93 44 80 50 103 25
93 -9 -4 -13 -2 -8 5 4 6 0 15 -7 20 -10 6 -8 9 10 9 19 0 21 3 11 15 -9 11
-6 24 16 65 35 65 25 77 -12 13 -15 -26 -29 -50 -31 -52 -8 -11 -67 58 -88
104 -24 49 -24 50 -7 97 9 27 22 48 29 48 17 0 16 -14 -1 -48 -7 -15 -17 -38
-21 -52 -14 -45 20 -5 35 41 8 23 19 43 25 45 5 2 32 0 58 -5 50 -9 54 -6 33
22 -16 20 -38 23 -30 3 4 -11 -9 -10 -73 4 -43 11 -91 23 -106 29 -40 15 -56
13 -33 -4 18 -14 18 -15 2 -15 -21 0 -78 58 -73 74 6 18 103 26 220 20 72 -5
107 -3 107 4 0 24 -14 43 -47 63 -41 25 -129 29 -231 9 -34 -7 -64 -11 -66 -9
-2 2 1 28 6 57 9 43 16 56 39 68 45 23 62 57 56 109 -4 43 -3 45 17 39 11 -4
33 -13 48 -20 62 -32 73 -25 233 143 142 148 150 155 153 127 1 -16 7 -56 13
-89z m3130 -208 c21 -158 22 -178 10 -340 -7 -95 -12 -209 -10 -255 1 -45 -1
-85 -4 -88 -3 -3 -17 48 -32 113 -34 149 -52 206 -81 263 -26 51 -69 106 -60
77 3 -9 12 -61 21 -114 9 -52 18 -100 22 -106 4 -6 1 -7 -7 -2 -11 6 -12 -7
-6 -67 8 -94 40 -210 72 -265 l24 -41 -63 -6 c-34 -2 -132 -9 -217 -15 -85 -5
-173 -15 -195 -22 -64 -18 -154 -67 -230 -124 -71 -54 -257 -239 -308 -307
-27 -35 -88 -68 -127 -68 -27 0 -92 71 -128 139 -43 81 -61 157 -73 314 l-10
138 32 80 c41 103 72 151 155 238 179 191 299 258 678 381 163 53 244 88 305
134 46 34 55 33 35 -6 -10 -18 -20 -48 -25 -65 -6 -28 -4 -33 12 -33 22 0 53
41 105 138 21 39 44 72 51 72 8 0 17 8 21 18 5 13 7 14 9 2 1 -8 12 -91 24
-183z m-4091 69 c52 -28 81 -76 88 -147 2 -27 9 -52 13 -55 14 -8 10 76 -5
119 -12 33 -12 37 3 37 29 0 89 -49 115 -93 34 -59 46 -139 39 -259 -5 -84 -9
-107 -26 -125 -11 -13 -17 -26 -13 -30 4 -4 12 0 17 10 6 9 22 23 38 31 40 21
70 3 106 -64 24 -46 30 -69 33 -140 3 -74 0 -91 -20 -130 -39 -75 -155 -138
-172 -93 -6 14 -8 14 -21 -3 -10 -14 -14 -49 -15 -124 -1 -220 -32 -305 -143
-380 -36 -25 -114 -74 -173 -110 -116 -70 -239 -183 -322 -295 -54 -73 -57
-75 -96 -64 -28 9 -94 5 -139 -8 -17 -4 -18 0 -11 44 9 64 18 79 51 86 37 7
107 68 123 106 9 23 9 38 1 62 -22 63 -16 76 49 109 33 16 70 30 83 30 44 0
123 29 146 54 28 30 24 76 -11 113 -43 46 -118 16 -118 -47 0 -34 17 -45 55
-36 33 8 32 26 -1 26 -21 0 -25 4 -22 23 2 18 9 22 37 22 30 0 36 -5 48 -33
12 -30 12 -34 -10 -56 -29 -29 -116 -50 -151 -36 -15 5 -28 20 -32 35 -21 86
56 178 216 258 143 71 184 122 239 292 55 169 74 283 75 450 1 127 -2 145 -23
193 -46 103 -90 115 -348 96 -103 -7 -203 -10 -222 -6 -32 7 -26 10 100 56 74
27 146 55 161 63 42 20 128 42 173 42 24 1 58 -8 85 -23z m2887 -272 c43 -15
49 -15 74 0 42 25 132 19 143 -9 3 -9 -20 -32 -62 -62 -37 -26 -104 -84 -150
-129 -46 -45 -80 -75 -77 -66 13 31 17 89 8 95 -5 3 -15 -27 -22 -66 -10 -55
-22 -84 -50 -122 -20 -27 -59 -86 -86 -129 -45 -72 -50 -86 -55 -155 -4 -66
-7 -73 -17 -55 -13 22 -69 51 -79 41 -3 -3 8 -13 25 -21 37 -20 56 -51 52 -89
-1 -15 3 -35 11 -44 12 -15 11 -15 -9 -5 -26 14 -43 15 -43 3 0 -7 29 -19 60
-25 23 -5 30 -24 30 -79 0 -77 38 -201 79 -264 30 -45 41 -80 21 -68 -22 14
-8 -15 29 -56 42 -48 91 -118 91 -129 0 -4 -10 -11 -22 -14 -20 -6 -16 -9 24
-22 41 -13 51 -21 72 -62 36 -71 57 -86 110 -79 30 4 57 1 83 -9 36 -16 86
-15 140 1 18 6 24 1 37 -29 8 -20 19 -36 24 -36 15 0 22 13 13 24 -23 31 -20
47 12 66 38 24 78 25 117 5 16 -8 31 -11 34 -6 7 11 -11 26 -41 35 -13 4 -23
11 -23 16 0 16 83 79 119 91 55 17 63 32 16 27 -22 -3 -48 -8 -59 -13 -17 -7
-17 -6 -6 16 22 42 52 69 87 75 18 3 30 10 27 15 -9 15 -58 10 -83 -7 l-23
-16 21 41 c20 39 63 71 96 71 8 0 15 5 15 10 0 16 -53 12 -78 -6 -20 -14 -22
-14 -22 4 0 11 13 45 29 76 32 59 23 76 -15 29 l-22 -28 -7 37 c-5 25 -1 54
10 88 9 28 15 54 12 56 -3 3 -17 -11 -30 -32 l-26 -37 -6 37 c-5 24 -2 49 9
76 22 56 20 67 -9 40 -14 -13 -25 -31 -25 -39 0 -14 -1 -14 -10 -1 -22 35 -11
68 33 98 84 58 308 152 361 152 40 0 61 -42 62 -124 l0 -70 32 -8 c40 -11 43
-43 7 -86 -31 -37 -31 -42 -1 -42 29 0 36 -21 22 -68 -8 -26 -6 -41 6 -65 11
-22 16 -57 15 -110 0 -72 -3 -81 -28 -106 -35 -36 -48 -95 -25 -119 14 -16 14
-21 -2 -52 -9 -19 -26 -37 -37 -38 -39 -7 -65 -42 -65 -89 0 -57 -12 -78 -63
-109 -65 -40 -110 -92 -103 -120 10 -38 -4 -53 -61 -70 -31 -9 -98 -41 -149
-71 -93 -54 -95 -55 -153 -48 -52 6 -63 4 -89 -15 -17 -12 -50 -25 -75 -27
-42 -5 -48 -3 -76 28 -30 32 -32 33 -67 20 -70 -25 -144 10 -165 77 -10 34
-20 42 -107 87 -123 63 -185 121 -207 198 -14 48 -24 61 -70 96 -61 46 -106
115 -131 201 -9 30 -27 68 -40 83 -46 55 -112 310 -85 327 10 5 10 21 2 65
-18 97 -14 200 9 245 11 22 24 40 28 40 5 0 16 -16 25 -35 23 -49 38 -44 20 8
-31 86 4 263 64 329 15 17 17 17 35 2 17 -16 18 -15 18 22 0 51 48 152 89 187
34 28 87 43 118 33 13 -4 27 2 43 18 33 36 93 76 137 92 48 17 44 17 100 -2z
m-4072 -83 c39 -22 93 -49 120 -61 81 -36 354 -139 435 -166 101 -32 107 -37
77 -57 -14 -9 -35 -37 -48 -63 -30 -63 -29 -137 5 -233 38 -108 35 -140 -13
-184 -87 -78 -353 -115 -411 -57 -19 19 -19 20 10 67 16 27 32 62 36 78 5 23
-6 12 -46 -45 -69 -100 -85 -116 -144 -145 -60 -30 -97 -31 -153 -6 -56 26
-77 67 -70 138 l6 53 -55 0 c-45 0 -59 4 -79 25 -58 57 -12 233 74 290 92 61
221 15 275 -99 20 -43 11 -67 -37 -96 -65 -40 -157 -16 -157 40 0 30 44 70 77
70 20 0 24 3 16 11 -22 22 -66 13 -95 -20 -38 -42 -37 -83 1 -122 25 -25 37
-29 82 -29 64 0 130 35 148 78 10 24 9 36 -3 67 -15 34 -15 42 0 83 41 122
-42 209 -178 187 -51 -8 -88 -30 -88 -50 0 -22 -37 -18 -60 5 -27 27 -28 116
-1 168 25 48 86 107 131 126 30 13 38 13 55 1 11 -8 52 -32 90 -54z m3020
-401 c171 -6 334 -15 363 -21 l53 -11 -3 -45 c-3 -44 -4 -46 -52 -64 -48 -19
-194 -45 -203 -36 -2 3 3 17 12 31 15 23 14 46 -3 46 -4 0 -19 -11 -33 -24
-39 -36 -106 -67 -174 -81 -33 -7 -88 -27 -121 -44 -34 -17 -68 -31 -76 -31
-8 0 -23 -7 -34 -15 -10 -8 -27 -15 -36 -15 -10 0 -18 -4 -18 -9 0 -5 -22 -36
-49 -68 -26 -32 -61 -78 -77 -103 -23 -37 -29 -41 -32 -25 -4 27 52 146 81
171 12 10 35 29 50 41 36 28 23 34 -38 18 -81 -22 -151 -61 -182 -102 -29 -40
-43 -53 -55 -53 -15 0 -8 28 22 86 16 32 30 64 30 71 0 7 39 24 88 39 95 29
164 71 141 85 -26 16 22 38 81 39 30 0 62 5 70 11 11 8 -6 9 -60 4 -60 -5 -80
-11 -100 -30 -16 -15 -65 -36 -130 -55 -125 -37 -148 -50 -178 -98 -22 -34
-119 -118 -127 -110 -2 2 17 37 42 78 64 108 140 158 265 175 52 7 82 30 54
41 -10 4 -57 2 -105 -3 -105 -12 -165 -38 -229 -99 -25 -24 -49 -41 -53 -38
-5 3 13 35 39 72 47 65 51 68 143 104 52 20 103 42 114 49 50 31 92 33 520 19z
m-845 -210 c12 -8 9 -15 -18 -43 -33 -34 -43 -82 -20 -89 7 -3 13 -15 13 -28
0 -16 7 -26 22 -30 l22 -5 -20 -32 c-20 -31 -24 -33 -81 -33 -73 0 -156 -37
-199 -89 l-29 -36 0 83 c0 76 3 87 29 125 16 23 43 56 61 72 l32 30 -4 -37
c-2 -21 -1 -38 4 -38 4 0 23 25 43 55 36 57 51 69 42 35 -8 -33 7 -23 41 25
33 48 38 50 62 35z m339 -297 c-11 -31 -19 -62 -19 -68 0 -9 -17 -11 -62 -8
-56 4 -68 2 -105 -23 -23 -15 -47 -38 -54 -50 -17 -32 -25 -23 -33 37 -4 29
-9 64 -12 79 -5 23 -1 29 29 43 19 10 37 17 39 17 2 0 3 -21 2 -46 -2 -53 13
-65 51 -40 13 9 30 16 38 16 7 0 40 22 72 49 33 27 63 50 66 50 4 1 -2 -24
-12 -56z m238 -109 l23 -24 -37 -55 c-31 -45 -44 -56 -73 -61 -185 -30 -318
-64 -617 -159 -94 -30 -173 -55 -175 -55 -1 0 -4 75 -5 167 l-3 167 20 -22
c27 -29 37 -28 55 7 30 59 127 111 204 111 20 0 42 5 48 11 13 13 15 8 33
-104 13 -79 28 -125 38 -112 4 6 14 11 22 13 8 2 24 12 35 22 56 50 91 56 208
34 l38 -7 -11 28 c-11 30 1 55 26 55 8 0 26 19 40 43 45 73 54 75 83 16 14
-28 35 -61 48 -75z m208 -150 c17 -36 19 -62 6 -83 -10 -15 -14 -10 -31 42
-14 46 -65 107 -88 107 -13 0 -11 -4 6 -16 23 -16 55 -71 78 -136 17 -49 5
-49 -21 -1 -30 56 -73 101 -114 120 -20 9 -38 18 -40 20 -3 2 13 21 34 43 l38
39 58 -52 c32 -28 66 -66 74 -83z m2677 -20 c54 -28 57 -118 7 -217 -25 -49
-131 -157 -153 -157 -9 0 -16 -4 -16 -10 0 -5 12 -10 26 -10 17 0 43 17 79 51
63 59 142 89 237 89 53 0 63 -3 90 -30 30 -31 30 -31 26 -123 -5 -117 -20
-147 -144 -297 -53 -63 -113 -145 -135 -182 -93 -158 -140 -332 -143 -523 -1
-152 19 -220 107 -361 73 -116 76 -122 87 -188 10 -66 -3 -109 -47 -145 -93
-76 -305 -63 -367 22 -30 40 -29 155 1 213 63 120 163 150 203 61 20 -42 24
-110 11 -157 -5 -19 -13 -25 -36 -25 -26 0 -30 4 -33 31 -2 17 4 50 12 74 17
49 14 59 -9 40 -20 -17 -37 -78 -33 -120 2 -29 9 -38 40 -52 20 -10 43 -15 50
-13 43 17 62 144 34 220 -64 165 -256 73 -296 -142 -12 -64 -7 -150 10 -184
29 -52 38 -126 27 -212 -9 -74 -13 -88 -31 -93 -35 -10 -76 -55 -109 -119 -28
-53 -31 -70 -32 -142 0 -46 -3 -83 -6 -83 -15 0 -68 71 -84 114 -21 56 -16 80
32 135 31 37 38 52 41 102 3 46 0 65 -14 86 -10 16 -18 31 -17 34 1 3 -22 -3
-50 -12 -119 -41 -166 -17 -187 98 -15 79 -7 251 15 338 17 62 60 146 102 196
14 17 55 45 92 63 47 24 75 47 99 79 38 54 62 116 62 162 0 29 6 37 44 59 53
31 108 92 144 161 24 45 27 61 27 150 0 82 -4 109 -22 147 -53 115 -146 45
-199 -150 -18 -66 -10 -112 20 -112 32 0 103 110 88 136 -7 13 -15 5 -40 -39
-43 -77 -57 -83 -48 -21 11 86 88 221 119 211 7 -1 21 -21 32 -43 16 -30 20
-59 20 -129 0 -78 -4 -97 -27 -141 -35 -66 -132 -156 -187 -172 -158 -48 -245
189 -148 402 21 46 33 57 98 96 99 58 225 185 267 269 35 71 39 105 18 156
-20 47 -58 69 -117 68 -45 -1 -71 -11 -211 -81 -5 -2 -8 12 -8 31 0 37 21 63
43 54 19 -7 32 3 51 40 19 38 21 84 4 102 -31 31 192 175 319 205 62 15 122
11 165 -10z m-2952 -18 c-77 -23 -209 -86 -274 -130 -20 -14 -60 -32 -89 -42
-215 -69 -605 -259 -670 -326 -10 -10 -28 -18 -40 -18 -19 1 -15 7 27 46 77
71 216 172 281 204 33 16 128 55 210 86 83 31 188 75 235 99 126 62 266 102
360 104 28 0 19 -5 -40 -23z m505 -73 c7 -114 28 -160 59 -133 11 8 13 31 9
93 -3 45 -2 79 1 75 4 -3 19 -48 32 -100 32 -117 145 -348 192 -389 38 -33 67
-37 81 -10 8 15 3 33 -24 84 -40 75 -68 172 -88 305 -13 87 -13 92 3 77 19
-17 44 -111 33 -127 -4 -7 -1 -8 7 -3 10 6 12 4 7 -9 -5 -11 -3 -15 5 -10 8 5
9 2 5 -9 -4 -10 -2 -16 5 -14 6 1 13 -4 16 -12 3 -9 0 -11 -9 -6 -8 5 -11 4
-6 -1 5 -5 12 -9 16 -9 4 0 22 -18 41 -40 l34 -40 -40 35 -39 35 34 -37 c19
-21 38 -35 42 -33 11 7 40 -6 34 -15 -3 -5 4 -6 14 -3 16 4 20 -2 26 -36 4
-22 3 -46 -1 -52 -4 -7 -3 -9 3 -6 13 8 26 -20 16 -35 -4 -7 -1 -8 7 -3 10 6
12 4 7 -7 -3 -10 9 -29 36 -54 l42 -39 -40 45 -40 44 45 -39 c25 -22 45 -43
45 -46 0 -4 4 -11 9 -16 5 -5 6 -2 1 6 -5 9 -3 12 6 9 8 -3 13 -11 11 -17 -1
-7 2 -10 8 -6 5 3 22 0 36 -8 27 -14 27 -14 -52 -45 -212 -81 -321 -101 -581
-109 -184 -5 -210 -8 -197 -20 8 -8 14 -21 14 -28 0 -19 54 -55 108 -72 27 -8
128 -18 237 -24 176 -9 354 -36 329 -51 -5 -3 -46 -17 -91 -31 -61 -20 -114
-28 -210 -33 -117 -6 -132 -5 -159 12 l-29 19 24 -35 c46 -67 72 -88 125 -101
l51 -12 -100 -34 c-55 -18 -106 -31 -113 -28 -7 3 -11 1 -7 -4 7 -13 -80 -45
-96 -36 -8 5 -10 4 -5 -3 4 -7 -4 -14 -21 -17 -46 -9 -98 -39 -101 -57 -5 -25
35 -38 116 -38 52 -1 63 -3 49 -11 -10 -6 -25 -8 -33 -5 -8 3 -13 2 -10 -3 9
-13 -39 -28 -151 -46 -56 -9 -130 -24 -165 -34 -59 -16 -66 -16 -107 -1 -36
14 -49 26 -69 65 -13 27 -32 76 -42 109 -10 34 -33 104 -50 156 -57 172 -72
228 -68 241 3 8 -6 42 -19 77 -12 34 -27 80 -32 101 l-8 39 70 39 c39 21 96
61 126 88 l55 50 -61 -75 c-33 -41 -74 -86 -89 -100 -18 -15 -14 -7 11 20 l40
45 -42 -39 c-23 -22 -40 -43 -37 -47 2 -4 -8 -17 -22 -28 -15 -12 -25 -24 -22
-27 3 -2 19 7 36 21 17 14 36 24 43 23 7 -2 13 4 14 12 0 8 8 15 17 15 23 0
118 94 112 110 -3 6 2 18 11 25 8 7 15 9 15 5 0 -4 6 -2 14 5 8 6 13 17 10 24
-3 7 6 21 18 32 23 19 23 19 8 -1 -14 -18 -14 -19 2 -7 9 8 15 19 12 26 -3 7
6 21 18 32 23 19 23 19 8 -1 -12 -17 -12 -18 0 -7 8 7 15 20 15 30 0 9 7 17
15 17 8 1 14 7 12 13 -2 11 83 132 93 132 2 0 -20 -48 -49 -108 -60 -121 -210
-350 -284 -432 -27 -30 -54 -65 -61 -77 -6 -13 -18 -23 -26 -23 -8 0 -15 -5
-15 -10 0 -6 18 -8 45 -6 60 6 109 42 235 172 91 95 114 126 172 234 37 69 72
124 78 122 6 -1 9 2 5 8 -8 13 13 52 25 45 5 -3 12 0 16 6 4 8 3 9 -4 5 -17
-10 -15 -3 10 48 12 25 26 42 31 39 6 -4 7 -1 3 6 -10 16 13 73 27 64 6 -4 7
-1 3 6 -10 15 13 73 25 65 5 -3 6 3 2 12 -5 13 -3 15 7 9 9 -5 11 -4 6 4 -6
10 13 85 21 78 1 -2 5 -39 8 -84z m-295 -58 c7 -9 11 -17 9 -19 -6 -5 -239
-44 -339 -56 -97 -13 -215 -10 -215 5 0 6 25 20 55 32 50 21 72 22 258 23 119
0 202 4 202 9 0 6 -19 12 -42 14 -42 3 -42 4 8 5 36 1 55 -3 64 -13z m-1969
-249 c37 -8 93 -28 125 -44 33 -16 83 -37 112 -47 30 -9 69 -31 89 -48 34 -30
83 -113 83 -141 0 -9 6 -13 14 -10 41 16 123 -88 158 -200 12 -39 24 -63 26
-53 6 29 18 19 50 -40 42 -80 62 -155 62 -231 0 -54 2 -63 14 -53 11 9 17 -2
34 -66 33 -123 44 -200 45 -313 1 -88 -3 -113 -21 -154 -25 -55 -27 -69 -8
-43 20 26 29 6 27 -59 -1 -57 -25 -117 -67 -167 -23 -27 -24 -54 -2 -41 14 9
0 -37 -18 -56 -8 -8 -40 -16 -79 -18 -52 -3 -63 -7 -55 -17 6 -7 22 -16 35
-19 30 -8 31 -21 5 -64 -28 -45 -62 -57 -128 -42 -62 14 -74 9 -38 -15 57 -38
20 -91 -70 -101 -42 -5 -52 -3 -68 15 -25 27 -38 27 -34 -1 3 -19 -5 -24 -47
-36 -58 -17 -116 -6 -165 30 -38 28 -50 16 -22 -21 11 -16 18 -31 15 -35 -13
-13 -109 -6 -131 10 -12 8 -32 34 -44 57 -19 36 -21 56 -19 142 3 124 13 166
52 210 31 35 77 49 65 20 -3 -8 -9 -23 -13 -32 -4 -10 13 -2 42 20 53 41 78
50 121 45 26 -3 29 -6 26 -35 -4 -38 13 -45 22 -10 7 30 52 76 91 93 28 12 32
11 52 -14 26 -33 37 -26 21 15 -9 24 -9 41 1 72 12 43 25 52 35 25 15 -39 24
3 19 89 -4 72 -2 100 11 131 23 55 21 70 -26 165 -36 72 -43 95 -44 147 0 57
-4 67 -42 116 -23 29 -64 77 -91 106 -49 52 -81 120 -81 173 0 33 -9 59 -21
59 -5 0 -9 -11 -9 -25 0 -27 -1 -28 -74 -25 -61 2 -90 13 -132 50 -27 23 -145
70 -178 70 -16 0 -4 -18 17 -24 21 -6 21 -7 3 -17 -10 -7 -60 -15 -110 -18
-93 -7 -121 -15 -111 -31 3 -5 -4 -14 -15 -20 -39 -21 -39 32 0 112 22 47 10
50 -24 6 -33 -44 -41 -82 -26 -118 11 -27 9 -33 -16 -68 -37 -50 -91 -95 -104
-87 -5 3 -10 20 -10 36 0 18 -4 28 -10 24 -18 -11 -11 -63 11 -79 19 -13 20
-18 10 -48 -6 -18 -12 -46 -13 -63 -1 -16 -7 -33 -13 -37 -19 -14 -62 -8 -89
13 -33 26 -34 6 0 -28 17 -17 33 -24 49 -21 21 4 23 3 14 -14 -5 -10 -35 -35
-66 -55 l-55 -37 -19 23 c-24 29 -32 24 -16 -9 7 -14 22 -26 35 -28 21 -3 21
-4 4 -22 -16 -17 -23 -18 -76 -7 -57 12 -58 13 -77 61 -19 52 -54 96 -75 96
-21 0 -54 56 -54 93 0 47 35 91 66 83 30 -8 30 -5 -1 40 -30 45 -31 56 -5 110
22 44 46 62 64 44 5 -5 17 -10 25 -10 12 0 11 3 -2 18 -41 45 -28 141 23 167
38 20 40 19 40 -10 0 -40 15 -29 29 22 18 71 68 133 134 169 28 15 29 15 22
-8 -7 -23 -7 -23 21 3 82 75 230 144 331 155 l58 6 -25 -21 -25 -20 60 15
c135 36 200 40 296 20z m-706 -26 c13 0 36 -10 51 -23 l26 -23 -28 -19 c-16
-10 -39 -20 -50 -21 -62 -7 -135 -67 -173 -143 -13 -25 -30 -40 -55 -49 -53
-19 -76 -55 -76 -117 0 -44 -4 -55 -24 -68 l-23 -16 -6 104 c-4 58 -3 115 2
129 13 32 49 56 83 56 32 0 34 -6 11 -32 -9 -10 -11 -18 -5 -18 16 0 61 59 67
88 13 64 32 107 56 125 29 21 86 37 107 31 8 -2 24 -4 37 -4z m1469 -226 c64
-9 122 -24 142 -36 45 -27 120 -32 247 -19 59 7 113 9 119 5 12 -7 -118 -43
-159 -44 -21 0 -34 -20 -14 -20 5 0 7 -9 4 -19 -3 -13 4 -25 22 -37 29 -19 43
-17 164 21 22 8 23 7 16 -33 -4 -25 -2 -49 5 -62 10 -18 9 -21 -2 -17 -7 3
-45 16 -85 28 -40 12 -70 26 -67 30 3 5 -1 6 -9 3 -8 -3 -80 20 -161 51 -81
30 -164 59 -184 64 -21 4 -36 13 -34 20 1 7 -2 10 -8 6 -14 -9 -52 14 -44 27
4 7 3 8 -4 4 -15 -9 -55 18 -44 29 4 5 1 5 -5 1 -7 -4 -23 0 -35 9 l-23 16 25
-5 c14 -3 74 -13 134 -22z m-2382 -168 c29 -13 75 -46 101 -73 43 -45 49 -56
54 -108 6 -56 5 -57 -16 -50 -12 3 -32 16 -45 28 -58 54 -92 77 -117 77 -35 0
-108 -26 -131 -47 -16 -15 -18 -14 -28 11 -14 38 -12 55 9 102 22 47 64 84 97
84 13 0 47 -11 76 -24z m2526 -26 c66 -36 313 -149 340 -155 18 -3 45 -13 60
-21 18 -8 53 -13 94 -11 l66 2 21 -70 c11 -38 30 -108 42 -155 11 -47 38 -127
59 -178 38 -91 39 -94 23 -127 -13 -28 -29 -38 -97 -65 -45 -18 -105 -45 -135
-61 -29 -16 -58 -26 -63 -23 -4 3 -7 0 -6 -7 2 -6 -3 -14 -10 -16 -9 -4 -10 1
-3 20 21 55 28 139 22 262 l-7 130 -26 -56 c-84 -183 -209 -382 -303 -484
l-55 -60 34 75 c18 41 36 83 39 93 4 10 11 15 17 12 6 -4 7 1 3 11 -5 13 -3
15 7 9 9 -5 11 -4 6 4 -10 16 3 53 16 45 6 -4 8 -2 5 3 -4 6 7 42 24 79 56
124 69 171 68 258 -1 99 -13 143 -21 75 -6 -55 -137 -341 -151 -332 -6 3 -7 1
-4 -4 4 -6 -2 -31 -13 -55 -11 -23 -18 -35 -16 -25 20 67 86 438 86 478 l0 49
148 -73 c207 -102 342 -133 319 -72 -4 8 -26 25 -49 36 -24 11 -54 26 -68 34
-14 8 -56 28 -93 45 -46 19 -66 33 -61 41 4 8 3 9 -4 5 -7 -4 -31 5 -54 19
-24 15 -34 24 -23 20 11 -4 43 -15 71 -25 84 -29 159 -43 198 -36 53 10 34 26
-29 26 -61 0 -249 55 -240 70 3 6 0 7 -8 4 -19 -7 -120 44 -112 56 3 5 0 7 -8
4 -9 -3 -23 10 -40 38 -14 24 -41 60 -60 81 -36 39 -38 43 -9 27z m-1137 -94
c86 -23 203 -82 257 -131 30 -27 60 -67 77 -102 15 -32 42 -79 60 -104 33 -47
65 -123 65 -157 0 -48 -129 -267 -245 -417 -71 -91 -118 -177 -109 -199 3 -9
1 -30 -6 -48 -7 -18 -15 -80 -19 -138 l-6 -105 -35 70 c-28 56 -41 72 -65 79
-16 4 -37 12 -46 16 -24 12 -16 -32 21 -114 16 -37 30 -70 30 -72 0 -11 -80
-2 -142 17 -61 19 -81 31 -144 91 -103 98 -169 189 -267 368 -83 152 -109 216
-122 295 -3 22 -9 49 -11 61 -5 21 -5 21 98 8 122 -15 188 -17 207 -5 19 12
-25 34 -99 50 -30 7 -61 14 -69 17 -8 3 9 27 49 71 84 89 147 176 178 243 70
153 141 211 267 219 12 0 46 -6 76 -13z m-1612 -92 l23 -16 -69 -45 c-37 -25
-82 -59 -100 -76 l-32 -30 -11 28 c-20 52 9 107 75 143 29 17 87 14 114 -4z
m2584 -37 c-3 -6 -1 -7 6 -3 6 4 25 -2 41 -14 16 -12 46 -24 66 -27 36 -6 37
-6 32 24 l-4 30 56 -36 57 -35 -33 -96 c-33 -95 -113 -418 -115 -469 -1 -14
-5 22 -10 81 -8 121 -22 196 -50 285 -11 35 -17 68 -13 74 4 8 3 9 -4 5 -13
-8 -18 11 -27 97 -3 32 -12 75 -20 94 -15 36 -15 36 5 18 11 -10 17 -22 13
-28z m2983 -49 c31 -32 32 -37 36 -138 4 -67 1 -123 -8 -155 -7 -27 -20 -84
-29 -125 -38 -171 -133 -418 -192 -497 -130 -177 -209 -245 -388 -336 -63 -32
-76 -35 -126 -30 l-56 5 96 92 c131 125 184 181 238 251 25 33 63 78 84 100
21 22 48 54 61 72 116 163 179 256 202 301 39 78 66 192 66 284 0 69 -4 87
-35 152 -19 41 -35 79 -35 86 0 14 45 -17 86 -62z m-143 -395 c-29 -87 -192
-249 -338 -335 -114 -68 -378 -168 -442 -168 -48 0 -290 37 -306 47 -12 7 -2
112 12 126 7 7 26 3 60 -11 61 -27 196 -59 283 -68 224 -23 515 141 692 389
26 37 49 67 51 67 2 0 -3 -21 -12 -47z m-980 -623 c114 -60 190 -60 377 0 51
17 95 29 97 27 2 -3 -54 -38 -124 -80 l-128 -75 -125 -4 -125 -3 -21 45 c-12
25 -29 69 -38 99 l-16 53 23 -16 c12 -9 48 -30 80 -46z m772 -261 c5 -16 -13
-51 -76 -145 l-83 -124 -13 60 c-6 34 -19 75 -27 92 -9 17 -15 32 -14 33 2 0
21 12 43 26 22 15 50 29 61 33 12 4 29 15 39 26 24 27 62 26 70 -1z"/>
<path d="M4335 6448 c-25 -19 -44 -22 -204 -29 -179 -7 -213 -14 -302 -59 -78
-40 -189 -122 -221 -164 -49 -65 -79 -86 -120 -86 -57 0 -48 -20 37 -89 104
-83 215 -136 345 -162 123 -24 171 -21 242 18 128 70 196 213 247 522 6 36 9
66 7 68 -1 2 -15 -7 -31 -19z m-140 -68 c4 -6 16 -8 27 -5 14 5 21 1 25 -15 4
-15 10 -19 22 -14 63 26 68 19 51 -63 -11 -48 -11 -49 -45 -45 -19 2 -35 8
-35 13 0 5 -15 9 -34 9 -18 0 -51 7 -72 16 -26 11 -58 15 -100 12 -90 -6 -231
-77 -302 -152 -29 -30 -52 -61 -52 -69 0 -8 -7 -20 -15 -27 -8 -7 -15 -20 -15
-29 -1 -41 -17 -46 -60 -17 -45 30 -50 55 -12 71 15 7 22 18 22 37 0 15 5 30
10 33 6 3 10 13 10 22 0 57 178 182 310 219 56 15 256 18 265 4z m8 -349 c17
-7 17 -8 -3 -31 -12 -14 -18 -19 -14 -11 5 9 3 12 -5 7 -6 -4 -9 -12 -5 -17 8
-14 -27 -51 -43 -45 -7 3 -15 0 -19 -6 -4 -7 -3 -8 4 -4 7 4 12 4 12 1 0 -3
-25 -18 -56 -32 -50 -23 -65 -25 -129 -20 -39 4 -82 10 -95 15 -23 9 -23 9 13
49 76 84 241 129 340 94z"/>
<path d="M7070 5120 c-19 -46 -4 -135 32 -187 40 -60 118 -103 184 -103 46 0
74 12 74 32 0 4 -19 20 -42 34 -54 33 -208 192 -208 215 0 9 -6 22 -14 28 -11
9 -16 5 -26 -19z"/>
<path d="M4259 4141 c-72 -48 -110 -112 -89 -151 17 -32 44 -24 81 26 46 62
77 82 130 86 34 2 45 7 48 22 10 53 -99 63 -170 17z"/>
<path d="M5340 3721 c0 -10 -7 -25 -16 -32 -9 -7 -46 -52 -82 -99 -83 -107
-85 -109 -77 -85 5 16 5 17 -3 5 -6 -8 -8 -18 -6 -22 5 -8 -77 -132 -118 -178
-13 -14 -19 -19 -14 -10 6 8 -13 -7 -42 -35 -29 -27 -52 -51 -52 -54 0 -3 18
13 40 34 22 21 40 35 40 31 0 -11 -122 -167 -170 -217 -22 -23 -37 -50 -37
-63 0 -24 0 -24 41 -10 25 9 66 39 104 77 34 34 62 58 62 53 0 -5 7 -3 15 4 8
7 12 16 9 22 -7 11 15 40 26 33 10 -6 24 14 25 35 0 8 6 14 13 12 8 -1 11 2 8
7 -3 5 8 26 25 47 48 60 169 242 201 302 21 40 28 68 28 108 0 30 -4 54 -10
54 -5 0 -10 -8 -10 -19z"/>
<path d="M5035 2991 c-57 -26 -112 -86 -135 -147 -33 -91 -1 -113 55 -37 16
23 38 53 47 66 9 13 58 44 107 68 50 24 91 47 91 50 0 7 -63 19 -100 19 -14 0
-43 -9 -65 -19z"/>
<path d="M2624 2318 c4 -18 35 -85 70 -149 53 -97 64 -126 70 -182 6 -53 11
-67 24 -67 26 0 39 30 47 103 11 97 1 129 -53 185 -26 27 -65 70 -88 95 -49
57 -80 63 -70 15z"/>
</g>
</svg>
