<?xml version="1.0" standalone="no"?>
<!DOCTYPE svg PUBLIC "-//W3C//DTD SVG 20010904//EN"
 "http://www.w3.org/TR/2001/REC-SVG-20010904/DTD/svg10.dtd">
<svg version="1.0" xmlns="http://www.w3.org/2000/svg"
 width="946.000000pt" height="845.000000pt" viewBox="0 0 946.000000 845.000000"
 preserveAspectRatio="xMidYMid meet">
<metadata>
Created by potrace 1.16, written by Peter Selinger 2001-2019
</metadata>
<g transform="translate(0.000000,845.000000) scale(0.100000,-0.100000)"
fill="#000000" stroke="none">
<path d="M2885 8411 c-302 -115 -577 -258 -855 -442 -498 -332 -884 -720
-1213 -1219 -385 -586 -611 -1230 -704 -2005 -25 -215 -25 -825 0 -1040 116
-975 453 -1766 1046 -2460 445 -521 1083 -966 1734 -1209 l97 -36 1585 0 1585
0 97 36 c651 243 1289 688 1734 1209 592 692 932 1492 1045 2455 21 184 30
673 15 870 -30 390 -103 773 -211 1114 l-42 129 16 116 c45 332 55 502 37 628
-14 97 -58 226 -95 280 -30 44 -32 51 -19 69 14 18 13 47 -3 88 -6 15 -4 17 7
11 8 -4 -2 8 -20 28 -19 21 -39 37 -43 37 -5 0 6 -14 24 -31 l33 -31 -34 27
c-19 14 -42 24 -52 22 -12 -3 -19 2 -23 18 -9 36 -72 85 -109 85 -18 0 -39 -4
-47 -10 -11 -7 -17 -2 -26 19 -13 30 -83 71 -123 71 -27 0 -58 -15 -88 -43
-22 -19 -23 -19 -23 -2 0 10 -8 28 -17 40 -10 11 -7 9 7 -5 l26 -25 33 22 c19
13 30 23 25 23 -5 0 -20 -7 -33 -16 -22 -16 -24 -15 -58 17 -20 19 -32 28 -28
20 6 -11 4 -13 -11 -7 -68 29 -126 28 -172 0 -21 -14 -28 -8 -175 139 -235
237 -437 402 -707 580 -262 172 -563 326 -843 431 l-97 36 -1588 0 -1587 -1
-100 -38z m2330 -210 c846 -115 1597 -473 2209 -1052 l88 -84 -11 -40 c-19
-71 -14 -156 14 -211 30 -60 32 -125 6 -209 -33 -104 -52 -250 -50 -368 2 -89
-2 -121 -16 -155 -15 -37 -17 -62 -12 -163 l6 -118 -43 -58 c-114 -154 -209
-209 -561 -323 -55 -18 -144 -53 -198 -78 -75 -35 -100 -43 -109 -34 -19 19 6
37 129 91 160 70 201 107 254 226 19 41 22 66 21 137 -3 87 -3 87 33 126 38
42 107 77 173 88 35 5 42 3 52 -16 7 -14 10 -42 7 -69 l-6 -46 16 35 c23 53
11 126 -27 165 -26 26 -38 30 -83 30 -77 0 -136 -38 -192 -125 -42 -66 -98
-120 -125 -120 -13 0 -10 74 6 143 5 23 3 27 -15 27 -22 0 -81 -71 -81 -97 0
-28 -16 -11 -39 42 -29 69 -77 118 -137 141 -41 15 -56 16 -123 7 -172 -25
-275 -80 -326 -174 -25 -46 -29 -66 -31 -139 -3 -97 -16 -138 -96 -294 -70
-134 -139 -206 -225 -229 -34 -10 -87 -17 -118 -16 -57 2 -57 2 -98 58 -22 31
-62 85 -89 119 -26 35 -75 118 -109 185 -34 67 -75 141 -90 163 -30 44 -80 74
-126 74 -24 1 -26 2 -10 11 10 6 88 15 175 20 420 25 446 28 537 54 111 32
274 116 330 171 59 57 88 135 89 242 1 76 -1 85 -23 103 -29 24 -91 25 -134 3
-23 -13 -12 2 43 58 163 163 210 319 149 495 -24 70 -63 124 -142 201 -102 97
-259 158 -348 134 -28 -7 -41 -5 -74 14 -122 69 -266 86 -358 40 -47 -22 -67
-26 -148 -26 -53 0 -121 -7 -154 -15 -70 -19 -157 -68 -193 -110 -16 -19 -27
-25 -29 -17 -3 7 -20 34 -39 60 -64 89 -74 107 -74 142 1 73 48 137 130 174 8
3 -2 4 -24 2 -21 -3 -59 -15 -85 -28 -60 -30 -101 -105 -101 -186 0 -110 -47
-153 -182 -167 -55 -6 -73 -4 -93 9 -36 24 -33 60 9 102 38 38 62 42 107 18
17 -8 32 -14 34 -12 2 2 -4 22 -14 44 -19 42 -44 57 -111 68 -67 11 -110 -8
-170 -73 -80 -88 -130 -103 -156 -47 -37 76 23 166 111 166 83 0 145 40 145
94 0 17 -7 52 -16 77 -20 56 -14 87 26 133 53 59 32 59 -35 -1 -57 -50 -66
-64 -76 -110 -14 -62 -29 -78 -90 -94 -62 -16 -79 -8 -79 36 0 25 -8 44 -26
62 -23 23 -31 25 -90 21 -44 -3 -72 -10 -91 -24 -45 -33 -73 -119 -82 -248 -4
-61 -10 -117 -14 -123 -11 -17 -73 -43 -105 -43 -41 0 -71 28 -82 75 -13 54
-5 73 34 84 45 12 82 3 94 -22 l11 -22 0 22 c1 32 -45 81 -87 93 -149 41 -332
-60 -252 -140 10 -10 37 -28 58 -39 88 -45 83 -185 -8 -231 -22 -11 -46 -32
-52 -46 -7 -15 -17 -23 -26 -19 -7 3 -22 5 -33 5 -10 0 -28 9 -39 20 -18 18
-20 33 -20 130 0 67 -4 110 -10 110 -6 0 -10 -27 -10 -60 0 -47 -5 -67 -25
-96 -18 -27 -25 -50 -25 -86 0 -80 -61 -183 -131 -218 -61 -32 -81 -71 -76
-151 5 -77 43 -169 80 -193 30 -20 47 -57 47 -101 0 -30 -4 -35 -22 -35 -26 0
-294 -55 -320 -65 -15 -6 -17 -1 -11 43 5 43 2 52 -18 70 -12 12 -29 22 -36
22 -34 0 -87 -34 -146 -94 -36 -36 -72 -66 -81 -66 -37 0 -56 20 -56 58 0 50
-12 66 -42 59 -42 -11 -85 -64 -119 -149 -43 -108 -87 -151 -215 -214 -84 -42
-104 -56 -130 -96 -35 -52 -58 -149 -58 -239 1 -107 86 -237 215 -327 l70 -50
-35 -12 c-48 -16 -120 -90 -141 -145 -12 -31 -16 -63 -13 -106 4 -53 9 -66 32
-86 35 -29 77 -28 91 4 16 38 118 55 179 29 41 -17 60 -64 50 -124 l-7 -42
-30 26 c-106 89 -240 85 -312 -10 -63 -82 -84 -210 -45 -274 21 -35 54 -52 99
-52 27 0 29 -2 33 -55 8 -98 68 -149 172 -149 66 1 105 16 159 64 34 29 35 29
52 10 72 -80 411 -19 475 85 27 44 25 86 -11 201 -34 111 -33 144 7 209 49 82
41 80 130 32 176 -95 284 -182 284 -228 0 -17 8 -34 20 -42 19 -13 19 -16 5
-43 -9 -16 -13 -40 -10 -55 7 -32 -11 -47 -135 -109 -175 -87 -266 -229 -200
-313 l20 -25 -43 -17 c-77 -30 -89 -54 -65 -121 9 -25 9 -39 0 -58 -14 -31
-87 -85 -124 -93 -30 -6 -42 -32 -54 -115 -6 -46 -7 -48 -75 -81 -61 -31 -70
-33 -81 -19 -35 41 -142 55 -204 26 -52 -25 -63 -45 -88 -157 -6 -25 -10 -28
-36 -22 -35 8 -89 -16 -110 -47 -11 -17 -14 -57 -15 -158 0 -125 -2 -138 -22
-164 -26 -33 -28 -60 -9 -96 13 -22 12 -28 -5 -51 -21 -30 -25 -89 -8 -122 8
-15 -1 -10 -31 16 -24 20 -64 44 -89 53 -132 46 -181 87 -181 148 0 67 -12 94
-70 153 -67 70 -155 110 -214 99 -66 -13 -135 -118 -123 -190 l5 -32 -52 4
c-103 8 -181 -59 -180 -155 0 -73 -16 -55 -59 65 -159 437 -237 881 -237 1347
0 1360 691 2605 1850 3333 531 333 1148 535 1795 586 28 2 181 2 340 1 222 -3
325 -8 440 -24z m-972 -472 c-3 -11 0 -38 7 -60 12 -36 12 -42 -7 -67 -11 -15
-40 -38 -64 -52 -40 -23 -55 -25 -161 -25 -106 0 -119 -2 -148 -23 -33 -25
-60 -75 -60 -113 0 -31 27 -82 51 -98 33 -20 130 -30 206 -21 l68 9 67 71 68
72 70 -4 c44 -2 75 -9 85 -18 12 -13 6 -15 -55 -15 -78 0 -106 -15 -152 -81
-63 -90 -59 -140 10 -122 20 6 82 11 137 13 157 5 215 28 249 99 9 19 16 56
16 83 0 79 17 86 25 9 4 -36 11 -69 16 -72 12 -7 11 -87 -1 -120 -6 -15 -31
-55 -57 -88 -25 -34 -49 -70 -53 -81 -4 -11 -20 -48 -34 -81 -17 -40 -26 -80
-26 -114 0 -47 4 -56 39 -91 30 -31 46 -39 74 -39 57 0 86 16 103 56 18 43 12
79 -18 112 -29 30 -53 28 -80 -8 -22 -30 -22 -30 -30 -9 -6 15 -3 31 9 52 61
103 169 75 164 -43 -1 -25 2 -58 5 -75 l7 -30 18 40 c10 22 19 35 19 28 0 -21
31 -43 60 -43 34 0 38 5 50 62 9 40 9 39 4 -12 -3 -30 -7 -88 -9 -129 -3 -67
-6 -76 -36 -107 -18 -19 -38 -34 -45 -34 -7 0 -42 -36 -78 -80 -48 -57 -73
-80 -89 -79 -27 0 -199 90 -204 105 -7 22 54 54 118 63 56 7 67 13 96 46 43
49 44 68 3 54 -21 -8 -40 -7 -66 1 -22 8 -60 10 -97 6 -80 -8 -105 5 -139 74
-37 72 -36 116 2 168 17 23 34 42 39 42 20 0 42 156 24 173 -3 4 -19 -16 -35
-44 -42 -74 -87 -90 -240 -90 -115 1 -118 0 -143 -27 -26 -28 -34 -20 -12 13
42 61 20 101 -51 90 -55 -8 -134 10 -159 37 -12 14 -18 36 -18 70 0 48 0 49
-18 27 -29 -36 -50 -126 -43 -183 17 -137 18 -176 8 -176 -26 0 -77 59 -106
124 -18 39 -41 78 -51 86 -17 14 -18 14 -6 -9 16 -30 16 -139 1 -187 -8 -22
-10 -58 -6 -90 5 -40 3 -54 -6 -54 -7 0 -53 -5 -103 -10 -116 -14 -140 -8
-164 38 l-19 36 -7 -42 c-10 -62 3 -119 37 -158 16 -18 36 -55 43 -81 7 -27
16 -55 20 -64 5 -13 -4 -20 -41 -33 -26 -9 -53 -16 -60 -16 -14 0 -143 130
-161 163 -45 79 -35 168 26 232 66 68 74 94 68 209 -3 56 -3 92 0 81 8 -31 23
-44 64 -56 l38 -12 -6 -61 c-9 -94 25 -146 94 -146 36 0 74 37 102 100 29 64
27 104 -6 130 -14 11 -31 19 -37 17 -17 -5 -56 -79 -56 -106 0 -20 4 -22 25
-17 34 9 32 -6 -4 -27 -27 -16 -28 -16 -40 9 -16 37 -13 105 7 135 9 15 31 38
49 53 34 29 60 107 48 148 -18 64 -30 80 -76 103 -56 29 -63 38 -55 70 4 15
23 32 58 49 52 26 97 32 159 19 28 -5 30 -7 14 -14 -11 -4 -33 -8 -50 -8 -16
-1 -45 -10 -62 -21 -40 -24 -46 -70 -12 -93 24 -17 48 -78 49 -122 1 -69 62
-76 112 -15 17 23 51 49 74 59 23 11 47 28 53 40 6 11 15 71 20 134 16 186 48
237 150 237 61 0 81 -11 81 -46 0 -12 10 -34 22 -49 19 -24 26 -27 65 -21 84
11 121 45 137 125 5 29 22 61 31 61 2 0 1 -9 -2 -21z m1294 -353 c62 -16 152
-57 195 -87 l30 -22 -11 21 c-11 21 -10 22 42 22 111 0 226 -59 328 -168 135
-144 161 -300 77 -467 -35 -70 -193 -236 -276 -292 -29 -19 -51 -37 -49 -39 2
-3 49 16 104 41 114 51 184 60 203 26 22 -41 5 -164 -33 -237 -26 -50 -89 -99
-199 -154 -137 -68 -220 -88 -408 -100 -484 -31 -561 -45 -667 -115 -62 -41
-96 -89 -129 -180 -36 -99 -33 -177 9 -268 42 -90 129 -200 199 -254 61 -47
173 -105 238 -124 134 -38 24 -36 -185 3 -123 24 -348 217 -412 355 -75 161
-48 314 92 529 67 103 130 172 199 218 81 54 109 55 208 9 79 -36 88 -38 178
-37 113 1 179 23 268 89 127 93 176 167 188 283 16 152 -75 224 -192 151 -85
-52 -122 -160 -71 -206 24 -23 87 -57 93 -51 2 2 -17 21 -41 42 -36 30 -45 43
-45 69 0 42 28 84 81 119 53 35 88 36 120 2 21 -22 24 -35 23 -97 -1 -100 -29
-161 -108 -235 -59 -54 -153 -119 -161 -110 -3 2 1 21 7 41 11 35 9 42 -32
120 -66 123 -60 194 24 320 20 28 51 69 70 90 31 33 40 37 84 37 60 0 108 19
143 57 42 44 49 67 49 148 0 86 -15 132 -55 163 -42 33 -88 27 -140 -18 -13
-11 -36 -17 -66 -17 -58 0 -91 -23 -124 -87 -31 -61 -31 -79 -4 -105 l21 -20
-54 6 c-42 4 -63 1 -94 -15 l-39 -20 -65 25 c-72 26 -101 24 -138 -10 -23 -22
-24 -22 -38 -3 -21 29 -17 80 10 134 26 53 46 142 23 108 -6 -10 -27 -36 -44
-58 -31 -37 -73 -147 -73 -190 0 -15 -6 -19 -27 -16 -28 3 -28 4 -33 88 -4 56
-11 93 -22 108 -15 22 -15 26 4 58 16 28 19 45 14 84 -6 46 -5 50 28 82 74 72
183 108 326 108 74 0 104 -4 133 -19 45 -23 52 -4 10 27 l-28 20 50 15 c63 20
126 21 192 3z m2612 -143 c16 -13 27 -32 29 -51 3 -30 3 -30 -36 -25 -24 3
-68 -3 -116 -17 -43 -12 -80 -19 -83 -16 -3 3 -3 20 1 39 6 32 44 78 76 90 28
11 102 -1 129 -20z m-314 -24 c29 -21 75 -83 75 -103 0 -4 -10 0 -22 8 -50 35
-132 10 -214 -66 -58 -53 -79 -90 -95 -163 -17 -84 -23 -94 -40 -64 -9 15 -14
56 -14 109 0 80 2 90 39 158 74 138 178 184 271 121z m-2129 -153 c26 -21 28
-30 32 -112 3 -81 2 -92 -20 -124 -34 -51 -82 -71 -188 -77 -102 -7 -120 1
-120 51 0 38 7 47 45 66 l30 15 -43 3 c-54 4 -60 19 -32 78 23 47 69 84 105
84 18 0 20 -5 17 -35 -4 -30 -1 -35 16 -35 15 0 19 5 15 20 -6 23 10 46 52 72
40 24 58 23 91 -6z m-1729 -231 c37 -8 95 -24 128 -35 l60 -20 -145 5 -145 6
-60 -40 c-33 -23 -53 -41 -45 -41 8 0 38 16 66 35 l51 36 139 -11 c251 -20
241 -18 260 -48 13 -20 14 -24 2 -15 -8 7 -17 11 -20 8 -3 -3 -48 -1 -100 5
-171 19 -262 14 -351 -21 -26 -11 -56 -19 -66 -19 -10 0 -24 -6 -30 -14 -7 -8
-30 -17 -51 -21 -47 -8 -59 -21 -67 -72 l-6 -38 41 37 c23 21 54 40 69 44 16
4 34 11 41 17 7 6 36 21 65 35 50 24 58 25 222 23 154 -2 170 -4 183 -22 7
-10 21 -19 30 -19 10 0 12 -3 6 -9 -5 -5 -58 -12 -119 -15 -60 -2 -138 -10
-173 -16 -52 -9 -66 -8 -86 5 -22 15 -25 14 -54 -10 -16 -14 -35 -25 -41 -25
-28 0 -81 -38 -156 -109 -69 -67 -94 -83 -180 -121 -55 -23 -130 -58 -167 -76
-38 -19 -83 -34 -103 -34 -19 0 -99 -17 -178 -37 -152 -39 -227 -44 -278 -17
-22 11 -29 22 -29 43 0 16 6 33 13 39 22 17 188 53 437 93 74 12 153 28 174
36 32 11 41 11 49 1 6 -10 10 -10 13 -1 36 87 271 363 360 422 41 26 57 31
110 31 35 0 93 -7 131 -15z m1168 -16 l63 -31 56 27 c34 16 68 25 88 23 31 -3
33 -5 30 -39 -4 -45 27 -79 70 -79 15 0 28 -2 28 -3 0 -2 -17 -22 -37 -43 -47
-49 -99 -144 -113 -207 -14 -65 -4 -117 38 -185 69 -114 52 -174 -53 -187 -80
-10 -136 0 -227 41 -88 40 -117 40 -193 2 -100 -51 -284 -286 -336 -429 -19
-53 -24 -58 -64 -69 -23 -7 -51 -10 -61 -8 -28 5 -45 78 -51 214 l-6 121 35
26 c25 19 64 33 138 47 114 23 143 35 179 74 l25 26 -31 -6 c-37 -7 -65 17
-61 55 3 24 6 26 46 23 64 -5 74 8 67 87 -9 91 11 119 129 181 68 35 93 54
107 81 24 46 25 155 2 205 l-18 36 28 24 c36 31 47 30 122 -7z m-1189 -293
c-6 19 -1 22 46 27 84 11 98 9 98 -10 0 -16 -8 -18 -56 -15 -44 3 -55 1 -52
-10 3 -7 30 -17 66 -22 34 -5 62 -13 62 -17 0 -5 5 -9 10 -9 6 0 10 7 10 15 0
10 10 15 30 15 17 0 30 -4 30 -10 0 -17 17 -11 22 8 3 12 22 23 51 31 25 7 48
19 51 27 6 17 52 19 62 3 4 -8 9 -7 16 2 7 11 8 9 4 -4 -4 -12 3 -30 18 -47
29 -36 50 -143 41 -215 -42 -325 -206 -509 -480 -539 -75 -9 -220 16 -292 49
-77 35 -165 98 -204 146 -48 58 -75 112 -60 117 6 2 9 7 6 12 -3 4 0 31 7 60
11 48 16 54 79 95 43 28 95 76 149 139 75 87 90 100 112 97 4 0 14 21 22 47 9
26 23 58 32 71 l16 23 55 -54 c37 -36 53 -46 49 -32z m-776 -442 c0 -48 4 -59
29 -85 l29 -28 -36 -7 c-19 -4 -47 -13 -61 -20 -34 -18 -66 -18 -85 2 -25 25
-19 41 22 57 20 8 46 24 56 36 16 18 18 26 9 56 -8 25 -8 35 1 39 31 12 36 5
36 -50z m-60 2 c0 -31 -4 -35 -48 -54 -89 -38 -101 -77 -46 -149 l24 -32 -29
-46 c-43 -68 -98 -105 -166 -112 -45 -5 -61 -12 -90 -40 -19 -19 -47 -57 -60
-84 l-26 -50 -44 31 c-53 37 -58 43 -59 88 -1 47 40 75 96 66 50 -8 75 2 93
36 21 41 19 76 -7 94 -27 19 -20 27 45 51 57 22 77 53 77 123 l0 49 108 30
c59 17 113 32 120 32 7 1 12 -12 12 -33z m3428 -33 c45 -33 91 -101 108 -160
15 -51 15 -58 -1 -99 -9 -24 -30 -55 -47 -69 -60 -51 -233 -125 -290 -125 -26
0 -51 56 -44 98 13 81 107 219 140 206 18 -7 36 -57 36 -101 0 -23 -8 -42 -25
-58 -39 -39 -61 -28 -57 30 2 28 1 29 -13 11 -41 -54 2 -112 64 -86 73 30 82
192 12 229 -46 25 -129 -57 -171 -167 -24 -63 -25 -91 -6 -137 30 -70 95 -69
250 3 129 61 176 111 191 202 9 60 37 120 65 145 l23 20 -7 -20 c-20 -52 -30
-126 -20 -143 29 -46 93 -13 148 76 43 70 89 116 138 136 50 21 91 20 119 -3
26 -21 25 -22 -51 -36 -55 -11 -129 -55 -163 -99 -31 -39 -32 -43 -32 -141 0
-87 -3 -107 -25 -150 -41 -81 -83 -115 -215 -174 -66 -29 -130 -62 -142 -73
-18 -17 -30 -20 -70 -14 -38 5 -57 2 -86 -13 -35 -18 -41 -18 -72 -5 -19 8
-48 14 -65 14 -39 0 -39 21 -1 82 34 53 79 88 114 88 61 0 39 -43 -32 -64 -34
-10 -42 -16 -29 -21 24 -10 105 31 114 57 7 25 -17 48 -50 48 -61 0 -166 -113
-166 -178 0 -11 -13 -25 -32 -34 -18 -9 -53 -34 -78 -55 -37 -33 -52 -40 -87
-40 -86 0 -180 -90 -199 -190 -3 -18 -9 -33 -13 -33 -8 0 -80 75 -154 160
l-56 66 67 0 c155 1 246 71 346 272 75 149 86 183 88 281 3 78 6 93 33 137 39
63 111 106 219 133 100 25 185 23 224 -6z m-3265 -203 c14 -11 37 -40 51 -65
34 -57 68 -74 157 -80 38 -3 79 -10 90 -16 27 -14 62 -5 121 31 l47 29 28 -27
c50 -47 81 -95 97 -153 26 -87 -2 -136 -68 -123 -26 4 -43 1 -61 -10 -35 -23
-55 -14 -122 54 -41 41 -71 62 -103 71 -25 7 -60 24 -79 36 -79 54 -167 51
-302 -8 -41 -17 -130 -53 -199 -79 l-125 -47 -57 19 c-32 11 -58 24 -58 30 0
20 53 98 86 128 28 24 43 30 83 30 38 0 57 7 90 30 40 30 101 111 101 136 0 8
12 10 38 7 25 -3 49 0 68 10 40 22 86 21 117 -3z m1088 -125 c13 -75 42 -142
76 -177 26 -27 51 -39 38 -18 -8 12 5 13 23 1 32 -20 7 -45 -78 -79 -94 -37
-146 -79 -156 -125 -5 -23 -2 -34 12 -44 26 -19 28 -17 53 28 13 22 33 44 46
49 12 5 48 25 79 45 32 20 59 35 60 33 1 -1 12 -29 23 -60 l21 -58 -28 -44
c-15 -24 -39 -51 -51 -60 -23 -16 -24 -16 -27 4 -3 18 -6 17 -29 -10 -34 -41
-47 -38 -40 10 6 50 -3 51 -28 4 -19 -35 -78 -84 -101 -84 -7 0 -17 14 -23 30
-13 38 -22 39 -15 1 l6 -30 -60 18 c-33 10 -65 22 -71 25 -25 16 -9 -12 19
-33 17 -12 28 -26 25 -32 -4 -5 4 -9 16 -9 22 0 22 0 3 21 -18 20 -18 20 11
13 42 -10 42 -9 48 -51 7 -38 70 -254 103 -346 17 -50 37 -68 56 -49 12 12 4
51 -59 272 l-44 155 23 15 c13 8 35 27 51 42 22 22 27 23 27 9 0 -25 10 -32
31 -21 14 8 24 3 48 -20 38 -38 64 -39 27 -1 -37 39 -16 51 29 16 27 -20 35
-23 35 -10 0 8 -11 21 -25 27 -31 14 -31 15 5 58 27 31 30 32 30 12 0 -12 -5
-22 -11 -22 -17 0 3 -21 40 -43 17 -10 31 -14 31 -8 0 6 -11 16 -25 24 l-26
13 21 19 c19 17 21 17 40 0 11 -10 20 -26 20 -36 0 -9 -9 -38 -20 -64 -11 -26
-20 -49 -20 -51 0 -11 24 -2 37 14 8 9 6 1 -5 -18 -81 -140 -83 -147 -58 -137
7 3 28 -9 45 -27 l31 -32 -20 -22 c-16 -17 -17 -22 -6 -22 9 0 20 9 26 21 9
16 14 18 25 9 11 -9 11 -16 -3 -41 -9 -16 -24 -29 -32 -30 -17 -1 -15 0 -124
-23 -43 -9 -80 -16 -82 -16 -12 0 -1 -41 14 -49 16 -10 16 -10 -1 -11 -10 0
-15 -5 -12 -10 4 -6 11 -8 16 -5 5 3 6 -1 3 -9 -10 -27 -22 -18 -40 29 -9 25
-20 45 -25 45 -10 0 7 -57 26 -87 21 -31 13 -40 -21 -24 -18 8 -30 8 -39 1
-16 -13 -36 9 -51 59 l-12 36 -1 -36 c-1 -23 7 -46 19 -62 24 -30 13 -43 -18
-21 -17 12 -20 21 -15 45 4 21 1 34 -8 40 -23 14 -32 11 -78 -30 -41 -36 -46
-38 -58 -23 -11 15 -12 15 -13 -6 0 -17 -11 -28 -42 -42 -42 -19 -43 -19 -52
0 -6 13 2 38 33 93 44 80 50 103 25 93 -9 -4 -13 -2 -8 5 4 6 0 15 -7 20 -10
6 -8 9 10 9 19 0 21 3 11 15 -9 11 -6 24 16 65 35 65 25 77 -12 13 -15 -26
-29 -50 -31 -52 -8 -11 -67 58 -88 104 -24 49 -24 50 -7 97 9 27 22 48 29 48
17 0 16 -14 -1 -48 -7 -15 -17 -38 -21 -52 -14 -45 20 -5 35 41 8 23 19 43 25
45 5 2 32 0 58 -5 50 -9 54 -6 33 22 -16 20 -38 23 -30 3 4 -11 -9 -10 -73 4
-43 11 -91 23 -106 29 -40 15 -56 13 -33 -4 18 -14 18 -15 2 -15 -21 0 -78 58
-73 74 6 18 103 26 220 20 72 -5 107 -3 107 4 0 24 -14 43 -47 63 -41 25 -129
29 -231 9 -34 -7 -64 -11 -66 -9 -2 2 1 28 6 57 9 43 16 56 39 68 45 23 62 57
56 109 -4 43 -3 45 17 39 11 -4 33 -13 48 -20 62 -32 73 -25 233 143 142 148
150 155 153 127 1 -16 7 -56 13 -89z m3130 -208 c21 -158 22 -178 10 -340 -7
-95 -12 -209 -10 -255 1 -45 -1 -85 -4 -88 -3 -3 -17 48 -32 113 -34 149 -52
206 -81 263 -26 51 -69 106 -60 77 3 -9 12 -61 21 -114 9 -52 18 -100 22 -106
4 -6 1 -7 -7 -2 -11 6 -12 -7 -6 -67 8 -94 40 -210 72 -265 l24 -41 -63 -6
c-34 -2 -132 -9 -217 -15 -85 -5 -173 -15 -195 -22 -64 -18 -154 -67 -230
-124 -71 -54 -257 -239 -308 -307 -27 -35 -88 -68 -127 -68 -27 0 -92 71 -128
139 -43 81 -61 157 -73 314 l-10 138 32 80 c41 103 72 151 155 238 179 191
298 257 679 381 164 54 244 89 304 134 46 34 55 33 35 -6 -10 -18 -20 -48 -25
-65 -6 -28 -4 -33 12 -33 22 0 53 41 105 138 21 39 44 72 51 72 8 0 17 8 21
18 5 13 7 14 9 2 1 -8 12 -91 24 -183z m-4091 69 c52 -28 81 -76 88 -147 2
-27 9 -52 13 -55 14 -8 10 76 -5 119 -12 33 -12 37 3 37 29 0 89 -49 115 -93
34 -59 46 -139 39 -259 -5 -84 -9 -107 -26 -125 -11 -13 -17 -26 -13 -30 4 -4
12 0 17 10 6 9 22 23 38 31 40 21 70 3 106 -64 24 -46 30 -69 33 -140 3 -74 0
-91 -20 -130 -39 -75 -155 -138 -172 -93 -6 14 -8 14 -21 -3 -10 -14 -14 -49
-15 -124 -1 -220 -32 -305 -143 -380 -36 -25 -114 -74 -173 -110 -116 -70
-239 -183 -322 -295 -54 -73 -57 -75 -96 -64 -28 9 -94 5 -139 -8 -17 -4 -18
0 -11 44 9 64 18 79 51 86 37 7 107 68 123 106 9 23 9 38 1 62 -22 63 -16 76
49 109 33 16 70 30 83 30 44 0 123 29 146 54 28 30 24 76 -11 113 -43 46 -118
16 -118 -47 0 -34 17 -45 55 -36 33 8 32 26 -1 26 -21 0 -25 4 -22 23 2 18 9
22 37 22 30 0 36 -5 48 -33 12 -30 12 -34 -10 -56 -29 -29 -116 -50 -151 -36
-15 5 -28 20 -32 35 -21 86 56 178 216 258 143 71 184 122 239 292 55 169 74
283 75 450 1 127 -2 145 -23 193 -46 103 -90 115 -348 96 -103 -7 -203 -10
-222 -6 -32 7 -26 10 100 56 74 27 146 55 161 63 42 20 128 42 173 42 24 1 58
-8 85 -23z m2887 -272 c43 -15 49 -15 74 0 42 25 132 19 143 -9 3 -9 -20 -32
-62 -62 -37 -26 -104 -84 -150 -129 -46 -45 -80 -75 -77 -66 13 31 17 89 8 95
-5 3 -15 -27 -22 -66 -10 -55 -22 -84 -50 -122 -20 -27 -59 -86 -86 -129 -45
-72 -50 -86 -55 -155 -4 -66 -7 -73 -17 -55 -13 22 -69 51 -79 41 -3 -3 8 -13
25 -21 37 -20 56 -51 52 -89 -1 -15 3 -35 11 -44 12 -15 11 -15 -9 -5 -26 14
-43 15 -43 3 0 -7 29 -19 60 -25 23 -5 30 -24 30 -79 0 -77 38 -201 79 -264
30 -45 41 -80 21 -68 -22 14 -8 -15 29 -56 42 -48 91 -118 91 -129 0 -4 -10
-11 -22 -14 -20 -6 -16 -9 24 -22 41 -13 51 -21 72 -62 36 -71 57 -86 110 -79
30 4 57 1 83 -9 36 -16 86 -15 140 1 18 6 24 1 37 -29 8 -20 19 -36 24 -36 15
0 22 13 13 24 -23 31 -20 47 12 66 38 24 78 25 117 5 16 -8 31 -11 34 -6 7 11
-11 26 -41 35 -13 4 -23 11 -23 16 0 16 83 79 119 91 55 17 63 32 16 27 -22
-3 -48 -8 -59 -13 -17 -7 -17 -6 -6 16 22 42 52 69 87 75 18 3 30 10 27 15 -9
15 -58 10 -83 -7 l-23 -16 21 41 c20 39 63 71 96 71 8 0 15 5 15 10 0 16 -53
12 -78 -6 -20 -14 -22 -14 -22 4 0 11 13 45 29 76 32 59 23 76 -15 29 l-22
-28 -7 37 c-5 25 -1 54 10 88 9 28 15 54 12 56 -3 3 -17 -11 -30 -32 l-26 -37
-6 37 c-5 24 -2 49 9 76 22 56 20 67 -9 40 -14 -13 -25 -31 -25 -39 0 -14 -1
-14 -10 -1 -22 35 -11 68 33 98 84 58 308 152 361 152 40 0 61 -42 62 -124 l0
-70 32 -8 c40 -11 43 -43 7 -86 -31 -37 -31 -42 -1 -42 29 0 36 -21 22 -68 -8
-26 -6 -41 6 -65 11 -22 16 -57 15 -110 0 -72 -3 -81 -28 -106 -35 -36 -48
-95 -25 -119 14 -16 14 -21 -2 -52 -9 -19 -26 -37 -37 -38 -39 -7 -65 -42 -65
-89 0 -57 -12 -78 -63 -109 -65 -40 -110 -92 -103 -120 10 -38 -4 -53 -61 -70
-31 -9 -98 -41 -149 -71 -93 -54 -95 -55 -153 -48 -52 6 -63 4 -89 -15 -17
-12 -50 -25 -75 -27 -42 -5 -48 -3 -76 28 -30 32 -32 33 -67 20 -70 -25 -144
10 -165 77 -10 34 -20 42 -107 87 -123 63 -185 121 -207 198 -14 48 -24 61
-70 96 -61 46 -106 115 -131 201 -9 30 -27 68 -40 83 -46 55 -112 310 -85 327
10 5 10 21 2 65 -18 97 -14 200 9 245 11 22 24 40 28 40 5 0 16 -16 25 -35 23
-49 38 -44 20 8 -31 86 4 263 64 329 15 17 17 17 35 2 17 -16 18 -15 18 22 0
51 48 152 89 187 34 28 87 43 118 33 13 -4 27 2 43 18 33 36 93 76 137 92 48
17 44 17 100 -2z m-4072 -83 c39 -22 93 -49 120 -61 81 -36 354 -139 435 -166
101 -32 107 -37 77 -57 -14 -9 -35 -37 -48 -63 -30 -63 -29 -137 5 -233 38
-108 35 -140 -13 -184 -87 -78 -353 -115 -411 -57 -19 19 -19 20 10 67 16 27
32 62 36 78 5 23 -6 12 -46 -45 -69 -100 -85 -116 -144 -145 -60 -30 -97 -31
-153 -6 -56 26 -77 67 -70 138 l6 53 -55 0 c-45 0 -59 4 -79 25 -58 57 -12
233 74 290 92 61 221 15 275 -99 20 -43 11 -67 -37 -96 -65 -40 -157 -16 -157
40 0 30 44 70 77 70 20 0 24 3 16 11 -22 22 -66 13 -95 -20 -38 -42 -37 -83 1
-122 25 -25 37 -29 82 -29 64 0 130 35 148 78 10 24 9 36 -3 67 -15 34 -15 42
0 83 41 122 -42 209 -178 187 -51 -8 -88 -30 -88 -50 0 -22 -37 -18 -60 5 -27
27 -28 116 -1 168 25 48 86 107 131 126 30 13 38 13 55 1 11 -8 52 -32 90 -54z
m6404 -599 c14 -156 14 -481 1 -637 -56 -644 -255 -1239 -598 -1782 -35 -57
-68 -101 -72 -98 -4 2 -10 17 -13 32 -4 16 -35 75 -71 131 -114 182 -131 256
-106 459 27 211 96 372 240 553 158 199 172 229 173 355 1 76 -16 122 -55 149
-31 22 -122 20 -196 -3 l-60 -18 26 51 c33 65 42 164 18 201 -32 49 -114 71
-200 54 -83 -17 -227 -92 -288 -149 l-53 -51 55 41 c197 151 432 189 470 76
14 -42 -1 -111 -38 -179 -28 -52 -124 -147 -148 -147 -8 0 -14 -4 -14 -10 0
-5 12 -10 26 -10 17 0 43 17 79 51 63 59 142 89 237 89 53 0 63 -3 90 -30 30
-31 30 -31 26 -123 -5 -117 -20 -147 -144 -297 -53 -63 -113 -145 -135 -182
-93 -158 -140 -332 -143 -523 -1 -152 19 -220 107 -361 73 -116 76 -122 87
-188 10 -66 -4 -109 -47 -145 -46 -38 -117 -55 -203 -49 -77 6 -135 31 -164
71 -30 40 -29 155 1 213 63 120 163 150 203 61 20 -42 24 -110 11 -157 -5 -19
-13 -25 -36 -25 -26 0 -30 4 -33 31 -2 17 4 50 12 74 17 49 14 59 -9 40 -20
-17 -37 -78 -33 -120 2 -29 9 -38 40 -52 20 -10 43 -15 50 -13 43 17 62 144
34 220 -64 165 -256 73 -296 -142 -14 -74 -8 -136 21 -213 23 -61 26 -104 15
-202 -6 -57 -11 -68 -29 -74 -37 -11 -84 -64 -114 -128 -23 -50 -28 -74 -28
-138 0 -43 -3 -78 -6 -78 -15 0 -68 71 -84 114 -22 56 -16 80 32 135 33 39 38
52 41 106 4 54 1 66 -17 84 -12 12 -20 25 -17 30 3 4 -18 0 -47 -10 -119 -41
-166 -17 -187 98 -15 79 -7 251 15 338 17 62 60 146 102 196 14 17 55 45 92
63 47 24 75 47 99 79 38 54 62 116 62 162 0 29 6 37 44 59 53 31 108 92 144
161 24 45 27 61 27 150 0 82 -4 109 -22 147 -53 115 -146 45 -199 -150 -18
-66 -10 -112 20 -112 32 0 103 110 88 136 -7 13 -15 5 -40 -39 -43 -77 -57
-83 -48 -21 11 86 88 221 119 211 7 -1 21 -21 32 -43 16 -30 20 -59 20 -129 0
-78 -4 -97 -27 -141 -35 -66 -132 -156 -187 -172 -158 -48 -245 189 -148 402
21 46 33 57 98 96 99 58 225 185 267 269 35 71 39 105 18 156 -20 47 -58 69
-117 68 -45 -1 -71 -11 -211 -81 -5 -2 -8 12 -8 31 0 37 21 63 43 54 19 -7 32
3 51 40 18 36 21 89 6 98 -16 10 -4 51 31 105 30 46 32 55 30 127 -2 51 -7 83
-17 94 -9 10 -14 34 -13 68 1 28 -3 57 -8 62 -8 8 -7 21 4 46 19 46 10 78 -25
92 -23 10 -28 17 -24 37 8 43 -8 113 -34 143 l-25 29 56 7 c126 16 189 -15
237 -115 41 -85 117 -158 211 -205 86 -43 157 -54 260 -43 89 9 155 32 257 91
59 34 86 57 126 111 56 73 79 134 114 296 33 155 32 154 46 55 7 -49 18 -145
23 -213z m-3384 198 c171 -6 334 -15 363 -21 l53 -11 -3 -45 c-3 -44 -4 -46
-52 -64 -48 -19 -194 -45 -203 -36 -2 3 3 17 12 31 15 23 14 46 -3 46 -4 0
-19 -11 -33 -24 -39 -36 -106 -67 -174 -81 -33 -7 -88 -27 -121 -44 -34 -17
-68 -31 -76 -31 -8 0 -23 -7 -34 -15 -10 -8 -27 -15 -36 -15 -10 0 -18 -4 -18
-9 0 -5 -22 -36 -49 -68 -26 -32 -61 -78 -77 -103 -23 -37 -29 -41 -32 -25 -4
27 52 146 81 171 12 10 35 29 50 41 36 28 23 34 -38 18 -81 -22 -151 -61 -182
-102 -29 -40 -43 -53 -55 -53 -15 0 -8 28 22 86 16 32 30 64 30 71 0 7 39 24
88 39 95 29 164 71 141 85 -26 16 22 38 81 39 30 0 62 5 70 11 11 8 -6 9 -60
4 -60 -5 -80 -11 -100 -30 -16 -15 -65 -36 -130 -55 -125 -37 -148 -50 -178
-98 -22 -34 -119 -118 -127 -110 -2 2 17 37 42 78 64 108 140 158 265 175 52
7 82 30 54 41 -10 4 -57 2 -105 -3 -105 -12 -165 -38 -229 -99 -25 -24 -49
-41 -53 -38 -5 3 13 35 39 72 47 65 51 68 143 104 52 20 103 42 114 49 50 31
92 33 520 19z m-845 -210 c12 -8 9 -15 -18 -43 -33 -34 -43 -82 -20 -89 7 -3
13 -15 13 -28 0 -16 7 -26 22 -30 l22 -5 -20 -32 c-20 -31 -24 -33 -81 -33
-73 0 -156 -37 -199 -89 l-29 -36 0 83 c0 76 3 87 29 125 16 23 43 56 61 72
l32 30 -4 -37 c-2 -21 -1 -38 4 -38 4 0 23 25 43 55 36 57 51 69 42 35 -8 -33
7 -23 41 25 33 48 38 50 62 35z m339 -297 c-11 -31 -19 -62 -19 -68 0 -9 -17
-11 -62 -8 -56 4 -68 2 -105 -23 -23 -15 -47 -38 -54 -50 -17 -32 -25 -23 -33
37 -4 29 -9 64 -12 79 -5 23 -1 29 29 43 19 10 37 17 39 17 2 0 3 -21 2 -46
-2 -53 13 -65 51 -40 13 9 30 16 38 16 7 0 40 22 72 49 33 27 63 50 66 50 4 1
-2 -24 -12 -56z m238 -109 l23 -24 -37 -55 c-31 -45 -44 -56 -73 -61 -185 -30
-318 -64 -617 -159 -94 -30 -173 -55 -175 -55 -1 0 -4 75 -5 167 l-3 167 20
-22 c27 -29 37 -28 55 7 30 59 127 111 204 111 20 0 42 5 48 11 13 13 15 8 33
-104 13 -79 28 -125 38 -112 4 6 14 11 22 13 8 2 24 12 35 22 56 50 91 56 208
34 l38 -7 -11 28 c-11 30 1 55 26 55 8 0 26 19 40 43 45 73 54 75 83 16 14
-28 35 -61 48 -75z m208 -150 c17 -36 19 -62 6 -83 -10 -15 -14 -10 -31 42
-14 46 -65 107 -88 107 -13 0 -11 -4 6 -16 23 -16 55 -71 78 -136 17 -49 5
-49 -21 -1 -30 56 -73 101 -114 120 -20 9 -38 18 -40 20 -3 2 13 21 34 43 l38
39 58 -52 c32 -28 66 -66 74 -83z m-275 -38 c-77 -23 -209 -86 -274 -130 -20
-14 -60 -32 -89 -42 -215 -69 -605 -259 -670 -326 -10 -10 -28 -18 -40 -18
-19 1 -15 7 27 46 77 71 216 172 281 204 33 16 128 55 210 86 83 31 188 75
235 99 126 62 266 102 360 104 28 0 19 -5 -40 -23z m505 -73 c7 -114 28 -160
59 -133 11 8 13 31 9 93 -3 45 -2 79 1 75 4 -3 19 -48 32 -100 32 -117 145
-348 192 -389 38 -33 67 -37 81 -10 8 15 3 33 -24 84 -40 75 -68 172 -88 305
-13 87 -13 92 3 77 19 -17 44 -111 33 -127 -4 -7 -1 -8 7 -3 10 6 12 4 7 -9
-5 -11 -3 -15 5 -10 8 5 9 2 5 -9 -4 -10 -2 -16 5 -14 6 1 13 -4 16 -12 3 -9
0 -11 -9 -6 -8 5 -11 4 -6 -1 5 -5 12 -9 16 -9 4 0 22 -18 41 -40 l34 -40 -40
35 -39 35 34 -37 c19 -21 38 -35 42 -33 11 7 40 -6 34 -15 -3 -5 4 -6 14 -3
16 4 20 -2 26 -36 4 -22 3 -46 -1 -52 -4 -7 -3 -9 3 -6 13 8 26 -20 16 -35 -4
-7 -1 -8 7 -3 10 6 12 4 7 -7 -3 -10 9 -29 36 -54 l42 -39 -40 45 -40 44 45
-39 c25 -22 45 -43 45 -46 0 -4 4 -11 9 -16 5 -5 6 -2 1 6 -5 9 -3 12 6 9 8
-3 13 -11 11 -17 -1 -7 2 -10 8 -6 5 3 22 0 36 -8 27 -14 27 -14 -52 -45 -212
-81 -321 -101 -581 -109 -184 -5 -210 -8 -197 -20 8 -8 14 -21 14 -28 0 -19
54 -55 108 -72 27 -8 128 -18 237 -24 176 -9 354 -36 329 -51 -5 -3 -46 -17
-91 -31 -61 -20 -114 -28 -210 -33 -117 -6 -132 -5 -159 12 l-29 19 24 -35
c46 -67 72 -88 125 -101 l51 -12 -100 -34 c-55 -18 -106 -31 -113 -28 -7 3
-11 1 -7 -4 7 -13 -80 -45 -96 -36 -8 5 -10 4 -5 -3 4 -7 -4 -14 -21 -17 -46
-9 -98 -39 -101 -57 -5 -25 35 -38 116 -38 52 -1 63 -3 49 -11 -10 -6 -25 -8
-33 -5 -8 3 -13 2 -10 -3 9 -13 -39 -28 -151 -46 -56 -9 -130 -24 -165 -34
-59 -16 -66 -16 -107 -1 -36 14 -49 26 -69 65 -13 27 -32 76 -42 109 -10 34
-33 104 -50 156 -57 172 -72 228 -68 241 3 8 -6 42 -19 77 -12 34 -27 80 -32
101 l-8 39 70 39 c39 21 96 61 126 88 l55 50 -61 -75 c-33 -41 -74 -86 -89
-100 -18 -15 -14 -7 11 20 l40 45 -42 -39 c-23 -22 -40 -43 -37 -47 2 -4 -8
-17 -22 -28 -15 -12 -25 -24 -22 -27 3 -2 19 7 36 21 17 14 36 24 43 23 7 -2
13 4 14 12 0 8 8 15 17 15 23 0 118 94 112 110 -3 6 2 18 11 25 8 7 15 9 15 5
0 -4 6 -2 14 5 8 6 13 17 10 24 -3 7 6 21 18 32 23 19 23 19 8 -1 -14 -18 -14
-19 2 -7 9 8 15 19 12 26 -3 7 6 21 18 32 23 19 23 19 8 -1 -12 -17 -12 -18 0
-7 8 7 15 20 15 30 0 9 7 17 15 17 8 1 14 7 12 13 -2 11 83 132 93 132 2 0
-20 -48 -49 -108 -60 -121 -210 -350 -284 -432 -27 -30 -54 -65 -61 -77 -6
-13 -18 -23 -26 -23 -8 0 -15 -5 -15 -10 0 -6 18 -8 45 -6 60 6 109 42 235
172 91 95 114 126 172 234 37 69 72 124 78 122 6 -1 9 2 5 8 -8 13 13 52 25
45 5 -3 12 0 16 6 4 8 3 9 -4 5 -17 -10 -15 -3 10 48 12 25 26 42 31 39 6 -4
7 -1 3 6 -10 16 13 73 27 64 6 -4 7 -1 3 6 -10 15 13 73 25 65 5 -3 6 3 2 12
-5 13 -3 15 7 9 9 -5 11 -4 6 4 -6 10 13 85 21 78 1 -2 5 -39 8 -84z m-295
-58 c7 -9 11 -17 9 -19 -6 -5 -239 -44 -339 -56 -97 -13 -215 -10 -215 5 0 6
25 20 55 32 50 21 72 22 258 23 119 0 202 4 202 9 0 6 -19 12 -42 14 -42 3
-42 4 8 5 36 1 55 -3 64 -13z m2441 -228 c49 -37 52 -110 8 -187 -42 -74 -171
-199 -234 -229 -67 -31 -103 -66 -131 -128 -47 -105 -53 -249 -14 -338 34 -79
107 -123 180 -108 l33 6 -7 -42 c-14 -92 -70 -165 -154 -203 -76 -35 -127 -83
-169 -164 -52 -98 -67 -169 -67 -334 -1 -128 1 -150 21 -192 35 -77 105 -98
190 -57 42 20 45 21 63 4 22 -20 27 -76 10 -121 -6 -15 -26 -45 -45 -65 -48
-53 -52 -80 -25 -145 l22 -54 -24 -20 c-228 -193 -582 -416 -870 -547 -378
-172 -739 -272 -1183 -330 -198 -25 -700 -25 -900 0 -458 59 -814 161 -1227
352 -78 36 -152 73 -163 81 -19 14 -18 16 35 63 102 90 170 218 170 323 0 27
-7 78 -16 114 -13 51 -14 71 -5 90 6 14 11 43 11 65 0 38 2 40 23 32 40 -14
114 -9 135 10 15 14 25 16 46 7 44 -16 89 -12 142 15 31 16 52 21 58 15 16
-16 78 -11 123 9 43 20 79 63 68 81 -4 6 7 10 30 10 49 0 90 23 105 60 7 17
27 38 44 47 55 28 129 86 211 164 141 135 327 244 589 345 171 66 278 96 396
114 91 13 331 82 448 129 162 65 386 173 641 309 152 82 174 86 304 53 163
-42 317 -149 317 -220 0 -67 -185 -292 -322 -391 -162 -119 -369 -164 -549
-121 -48 11 -117 32 -155 46 -37 14 -71 22 -75 18 -15 -16 -39 -119 -39 -168
0 -72 32 -190 79 -291 45 -96 128 -186 205 -223 54 -27 96 -28 96 -3 0 23 35
57 73 71 40 15 123 14 155 -3 77 -40 111 -117 112 -248 0 -54 4 -98 8 -98 13
0 184 179 233 245 189 250 339 530 421 787 31 97 33 111 33 248 0 125 -3 154
-23 210 -29 84 -95 171 -183 241 -69 56 -105 72 -187 85 l-43 7 56 28 c31 15
73 42 94 59 22 16 45 30 52 30 7 0 53 24 104 54 50 29 109 56 131 60 55 11 84
40 84 88 0 42 34 88 65 88 8 0 44 29 80 64 46 46 82 71 127 89 68 28 152 35
179 14z m-4410 -21 c37 -8 93 -28 125 -44 33 -16 83 -37 112 -47 30 -9 69 -31
89 -48 34 -30 83 -113 83 -141 0 -9 6 -13 14 -10 41 16 123 -88 158 -200 12
-39 24 -63 26 -53 6 29 18 19 50 -40 42 -80 62 -155 62 -231 0 -54 2 -63 14
-53 11 9 17 -2 34 -66 33 -123 44 -200 45 -313 1 -88 -3 -113 -21 -154 -25
-55 -27 -69 -8 -43 20 26 29 6 27 -59 -1 -57 -25 -117 -67 -167 -23 -27 -24
-54 -2 -41 14 9 0 -37 -18 -56 -8 -8 -40 -16 -79 -18 -52 -3 -63 -7 -55 -17 6
-7 22 -16 35 -19 30 -8 31 -21 5 -64 -28 -45 -62 -57 -128 -42 -62 14 -74 9
-38 -15 57 -38 20 -91 -70 -101 -42 -5 -52 -3 -68 15 -25 27 -38 27 -34 -1 3
-19 -5 -24 -47 -36 -58 -17 -116 -6 -165 30 -38 28 -50 16 -22 -21 11 -16 18
-31 15 -35 -13 -13 -109 -6 -131 10 -12 8 -32 34 -44 57 -19 36 -21 56 -19
142 3 124 13 166 52 210 31 35 77 49 65 20 -3 -8 -9 -23 -13 -32 -4 -10 13 -2
42 20 53 41 78 50 121 45 26 -3 29 -6 26 -35 -4 -38 13 -45 22 -10 7 30 52 76
91 93 28 12 32 11 52 -14 26 -33 37 -26 21 15 -9 24 -9 41 1 72 12 43 25 52
35 25 15 -39 24 3 19 89 -4 72 -2 100 11 131 23 55 21 70 -26 165 -36 72 -43
95 -44 147 0 57 -4 67 -42 116 -23 29 -64 77 -91 106 -49 52 -81 120 -81 173
0 33 -9 59 -21 59 -5 0 -9 -11 -9 -25 0 -27 -1 -28 -74 -25 -61 2 -90 13 -132
50 -27 23 -145 70 -178 70 -16 0 -4 -18 17 -24 21 -6 21 -7 3 -17 -10 -7 -60
-15 -110 -18 -93 -7 -121 -15 -111 -31 3 -5 -4 -14 -15 -20 -39 -21 -39 32 0
112 22 47 10 50 -24 6 -33 -44 -41 -82 -26 -118 11 -27 9 -33 -16 -68 -37 -50
-91 -95 -104 -87 -5 3 -10 20 -10 36 0 18 -4 28 -10 24 -18 -11 -11 -63 11
-79 19 -13 20 -18 10 -48 -6 -18 -12 -46 -13 -63 -1 -16 -7 -33 -13 -37 -19
-14 -62 -8 -89 13 -33 26 -34 6 0 -28 17 -17 33 -24 49 -21 21 4 23 3 14 -14
-5 -10 -35 -35 -66 -55 l-55 -37 -19 23 c-24 29 -32 24 -16 -9 7 -14 22 -26
35 -28 21 -3 21 -4 4 -22 -16 -17 -23 -18 -76 -7 -57 12 -58 13 -77 61 -19 52
-54 96 -75 96 -21 0 -54 56 -54 93 0 47 35 91 66 83 30 -8 30 -5 -1 40 -30 45
-31 56 -5 110 22 44 46 62 64 44 5 -5 17 -10 25 -10 12 0 11 3 -2 18 -41 45
-28 141 23 167 38 20 40 19 40 -10 0 -40 15 -29 29 22 18 71 68 133 134 169
28 15 29 15 22 -8 -7 -23 -7 -23 21 3 82 75 230 144 331 155 l58 6 -25 -21
-25 -20 60 15 c135 36 200 40 296 20z m-699 -26 c9 0 29 -10 44 -23 l26 -23
-28 -19 c-16 -10 -39 -20 -50 -21 -62 -7 -135 -67 -173 -143 -13 -25 -30 -40
-55 -49 -53 -19 -76 -55 -76 -117 0 -44 -4 -55 -24 -68 l-23 -16 -6 104 c-4
58 -3 115 2 129 13 32 49 56 83 56 32 0 34 -6 11 -32 -9 -10 -11 -18 -5 -18
21 0 61 61 72 112 13 61 31 92 62 109 32 18 80 28 103 23 11 -2 28 -4 37 -4z
m1462 -226 c64 -9 122 -24 142 -36 45 -27 120 -32 247 -19 59 7 113 9 119 5
12 -7 -118 -43 -159 -44 -21 0 -34 -20 -14 -20 5 0 7 -9 4 -19 -3 -13 4 -25
22 -37 29 -19 43 -17 164 21 22 8 23 7 16 -33 -4 -25 -2 -49 5 -62 10 -18 9
-21 -2 -17 -7 3 -45 16 -85 28 -40 12 -70 26 -67 30 3 5 -1 6 -9 3 -8 -3 -80
20 -161 51 -81 30 -164 59 -184 64 -21 4 -36 13 -34 20 1 7 -2 10 -8 6 -14 -9
-52 14 -44 27 4 7 3 8 -4 4 -15 -9 -55 18 -44 29 4 5 1 5 -5 1 -7 -4 -23 0
-35 9 l-23 16 25 -5 c14 -3 74 -13 134 -22z m-2382 -168 c29 -13 75 -46 101
-73 43 -45 49 -56 54 -108 6 -56 5 -57 -16 -50 -12 3 -32 16 -45 28 -58 54
-92 77 -117 77 -35 0 -108 -26 -131 -47 -16 -15 -18 -14 -28 11 -14 38 -12 55
9 102 22 47 64 84 97 84 13 0 47 -11 76 -24z m2526 -26 c66 -36 313 -149 340
-155 18 -3 45 -13 60 -21 18 -8 53 -13 94 -11 l66 2 21 -70 c11 -38 30 -108
42 -155 11 -47 38 -127 59 -178 38 -91 39 -94 23 -127 -13 -28 -29 -38 -97
-65 -45 -18 -105 -45 -135 -61 -29 -16 -58 -26 -63 -23 -4 3 -7 0 -6 -7 2 -6
-3 -14 -10 -16 -9 -4 -10 1 -3 20 21 55 28 139 22 262 l-7 130 -26 -56 c-84
-183 -209 -382 -303 -484 l-55 -60 34 75 c18 41 36 83 39 93 4 10 11 15 17 12
6 -4 7 1 3 11 -5 13 -3 15 7 9 9 -5 11 -4 6 4 -10 16 3 53 16 45 6 -4 8 -2 5
3 -4 6 7 42 24 79 56 124 69 171 68 258 -1 99 -13 143 -21 75 -6 -55 -137
-341 -151 -332 -6 3 -7 1 -4 -4 4 -6 -2 -31 -13 -55 -11 -23 -18 -35 -16 -25
20 67 86 438 86 478 l0 49 148 -73 c207 -102 342 -133 319 -72 -4 8 -26 25
-49 36 -24 11 -54 26 -68 34 -14 8 -56 28 -93 45 -46 19 -66 33 -61 41 4 8 3
9 -4 5 -7 -4 -31 5 -54 19 -24 15 -34 24 -23 20 11 -4 43 -15 71 -25 84 -29
159 -43 198 -36 53 10 34 26 -29 26 -61 0 -249 55 -240 70 3 6 0 7 -8 4 -19
-7 -120 44 -112 56 3 5 0 7 -8 4 -9 -3 -23 10 -40 38 -14 24 -41 60 -60 81
-36 39 -38 43 -9 27z m-1137 -94 c86 -23 203 -82 257 -131 30 -27 60 -67 77
-102 15 -32 42 -79 60 -104 33 -47 65 -123 65 -157 0 -48 -129 -267 -245 -417
-71 -91 -118 -177 -109 -199 3 -9 1 -30 -6 -48 -7 -18 -15 -80 -19 -138 l-6
-105 -35 70 c-28 56 -41 72 -65 79 -16 4 -37 12 -46 16 -24 12 -16 -32 21
-114 16 -37 30 -70 30 -72 0 -11 -80 -2 -142 17 -61 19 -81 31 -144 91 -103
98 -169 189 -267 368 -83 152 -109 216 -122 295 -3 22 -9 49 -11 61 -5 21 -5
21 98 8 122 -15 188 -17 207 -5 19 12 -25 34 -99 50 -30 7 -61 14 -69 17 -8 3
9 27 49 71 84 89 147 176 178 243 70 153 141 211 267 219 12 0 46 -6 76 -13z
m-1612 -92 l23 -16 -69 -45 c-37 -25 -82 -59 -100 -76 l-32 -30 -11 28 c-20
52 9 107 75 143 29 17 87 14 114 -4z m2584 -37 c-3 -6 -1 -7 6 -3 6 4 25 -2
41 -14 16 -12 46 -24 66 -27 36 -6 37 -6 32 24 l-4 30 56 -36 57 -35 -33 -96
c-33 -95 -113 -418 -115 -469 -1 -14 -5 22 -10 81 -8 121 -22 196 -50 285 -11
35 -17 68 -13 74 4 8 3 9 -4 5 -13 -8 -18 11 -27 97 -3 32 -12 75 -20 94 -15
36 -15 36 5 18 11 -10 17 -22 13 -28z m2973 -39 l42 -43 5 -105 c3 -67 0 -123
-9 -155 -7 -27 -20 -84 -29 -125 -38 -171 -133 -418 -192 -497 -130 -177 -209
-245 -388 -336 -63 -32 -76 -35 -126 -30 l-56 5 96 92 c131 125 184 181 238
251 25 33 63 78 84 100 21 22 48 54 61 72 116 163 179 256 202 301 39 78 66
192 66 284 0 69 -4 87 -35 152 -19 41 -35 79 -35 85 0 18 30 -2 76 -51z m-133
-405 c-29 -87 -192 -249 -338 -335 -114 -68 -378 -168 -442 -168 -48 0 -290
37 -306 47 -12 7 -2 112 12 126 7 7 26 3 60 -11 143 -62 352 -83 480 -48 171
46 371 195 495 369 26 37 49 67 51 67 2 0 -3 -21 -12 -47z m-980 -623 c114
-60 190 -60 377 0 51 17 95 29 97 27 2 -3 -54 -38 -124 -80 l-128 -75 -125 -4
-125 -3 -21 45 c-12 25 -29 69 -38 99 l-16 53 23 -16 c12 -9 48 -30 80 -46z
m1816 -25 c20 -10 71 -20 122 -24 l89 -6 -87 -100 c-106 -122 -321 -340 -329
-332 -9 8 41 100 71 129 14 15 40 28 56 30 l30 3 5 115 c4 98 2 124 -16 174
-25 73 -25 74 3 49 12 -11 37 -28 56 -38z m-1044 -236 c5 -16 -12 -49 -72
-137 -43 -65 -81 -124 -85 -132 -4 -9 -7 -4 -7 16 -1 36 -29 134 -43 152 -6 7
-9 14 -7 15 41 28 89 56 105 61 12 4 29 15 39 26 24 27 62 26 70 -1z"/>
<path d="M4335 6448 c-25 -19 -44 -22 -204 -29 -179 -7 -213 -14 -302 -59 -78
-40 -189 -122 -221 -164 -49 -65 -79 -86 -120 -86 -57 0 -48 -20 37 -89 104
-83 215 -136 345 -162 123 -24 171 -21 242 18 128 70 196 213 247 522 6 36 9
66 7 68 -1 2 -15 -7 -31 -19z m-140 -68 c4 -6 16 -8 27 -5 14 5 21 1 25 -15 4
-15 10 -19 22 -14 63 26 68 19 51 -63 -11 -48 -11 -49 -45 -45 -19 2 -35 8
-35 13 0 5 -15 9 -34 9 -18 0 -51 7 -72 16 -26 11 -58 15 -100 12 -90 -6 -231
-77 -302 -152 -29 -30 -52 -61 -52 -69 0 -8 -7 -20 -15 -27 -8 -7 -15 -20 -15
-29 -1 -41 -17 -46 -60 -17 -45 30 -50 55 -12 71 15 7 22 18 22 37 0 15 5 30
10 33 6 3 10 13 10 22 0 57 178 182 310 219 56 15 256 18 265 4z m8 -349 c17
-7 17 -8 -3 -31 -12 -14 -18 -19 -14 -11 5 9 3 12 -5 7 -6 -4 -9 -12 -5 -17 8
-14 -27 -51 -43 -45 -7 3 -15 0 -19 -6 -4 -7 -3 -8 4 -4 7 4 12 4 12 1 0 -3
-25 -18 -56 -32 -50 -23 -65 -25 -129 -20 -39 4 -82 10 -95 15 -23 9 -23 9 13
49 76 84 241 129 340 94z"/>
<path d="M7070 5120 c-19 -46 -4 -135 32 -187 40 -60 118 -103 184 -103 46 0
74 12 74 32 0 4 -19 20 -42 34 -54 33 -208 192 -208 215 0 9 -6 22 -14 28 -11
9 -16 5 -26 -19z"/>
<path d="M4259 4141 c-72 -48 -110 -112 -89 -151 17 -32 44 -24 81 26 46 62
77 82 130 86 34 2 45 7 48 22 10 53 -99 63 -170 17z"/>
<path d="M5340 3721 c0 -10 -7 -25 -16 -32 -9 -7 -46 -52 -82 -99 -83 -107
-85 -109 -77 -85 5 16 5 17 -3 5 -6 -8 -8 -18 -6 -22 5 -8 -77 -132 -118 -178
-13 -14 -19 -19 -14 -10 6 8 -13 -7 -42 -35 -29 -27 -52 -51 -52 -54 0 -3 18
13 40 34 22 21 40 35 40 31 0 -11 -122 -167 -170 -217 -22 -23 -37 -50 -37
-63 0 -24 0 -24 41 -10 25 9 66 39 104 77 34 34 62 58 62 53 0 -5 7 -3 15 4 8
7 12 16 9 22 -7 11 15 40 26 33 10 -6 24 14 25 35 0 8 6 14 13 12 8 -1 11 2 8
7 -3 5 8 26 25 47 48 60 169 242 201 302 21 40 28 68 28 108 0 30 -4 54 -10
54 -5 0 -10 -8 -10 -19z"/>
<path d="M5035 2991 c-57 -26 -112 -86 -135 -147 -33 -91 -1 -113 55 -37 16
23 38 53 47 66 9 13 58 44 107 68 50 24 91 47 91 50 0 7 -63 19 -100 19 -14 0
-43 -9 -65 -19z"/>
<path d="M2624 2318 c4 -18 35 -85 70 -149 53 -97 64 -126 70 -182 6 -53 11
-67 24 -67 26 0 39 30 47 103 11 97 1 129 -53 185 -26 27 -65 70 -88 95 -49
57 -80 63 -70 15z"/>
</g>
</svg>
